<svg xmlns="http://www.w3.org/2000/svg" xmlns:xlink="http://www.w3.org/1999/xlink" xmlns:s="https://github.com/nturley/netlistsvg" width="429" height="302.5">
  <style>svg {
    stroke:#000;
    fill:none;
  }
  text {
    fill:#000;
    stroke:none;
    font-size:10px;
    font-weight: bold;
    font-family: "Courier New", monospace;
  }
  .nodelabel {
    text-anchor: middle;
  }
  .inputPortLabel {
    text-anchor: end;
  }
  .splitjoinBody {
    fill:#000;
  }</style>
  <g s:type="and" transform="translate(310,13)" s:width="30" s:height="25" id="cell_$and$gate_level.v:45$3">
    <s:alias val="$and"/>
    <s:alias val="$logic_and"/>
    <s:alias val="$_AND_"/>
    <path d="M0,0 L0,25 L15,25 A15 12.5 0 0 0 15,0 Z" class="cell_$and$gate_level.v:45$3"/>
    <g s:x="0" s:y="5" s:pid="A"/>
    <g s:x="0" s:y="20" s:pid="B"/>
    <g s:x="30" s:y="12.5" s:pid="Y"/>
  </g>
  <g s:type="and" transform="translate(310,73)" s:width="30" s:height="25" id="cell_$and$gate_level.v:46$5">
    <s:alias val="$and"/>
    <s:alias val="$logic_and"/>
    <s:alias val="$_AND_"/>
    <path d="M0,0 L0,25 L15,25 A15 12.5 0 0 0 15,0 Z" class="cell_$and$gate_level.v:46$5"/>
    <g s:x="0" s:y="5" s:pid="A"/>
    <g s:x="0" s:y="20" s:pid="B"/>
    <g s:x="30" s:y="12.5" s:pid="Y"/>
  </g>
  <g s:type="not" transform="translate(375,270.5)" s:width="30" s:height="20" id="cell_$not$gate_level.v:44$1">
    <s:alias val="$_NOT_"/>
    <s:alias val="$not"/>
    <s:alias val="$logic_not"/>
    <path d="M0,0 L0,20 L20,10 Z" class="cell_$not$gate_level.v:44$1"/>
    <circle cx="23" cy="10" r="3" class="cell_$not$gate_level.v:44$1"/>
    <g s:x="0" s:y="10" s:pid="A"/>
    <g s:x="25" s:y="10" s:pid="Y"/>
  </g>
  <g s:type="not" transform="translate(245,23)" s:width="30" s:height="20" id="cell_$not$gate_level.v:45$2">
    <s:alias val="$_NOT_"/>
    <s:alias val="$not"/>
    <s:alias val="$logic_not"/>
    <path d="M0,0 L0,20 L20,10 Z" class="cell_$not$gate_level.v:45$2"/>
    <circle cx="23" cy="10" r="3" class="cell_$not$gate_level.v:45$2"/>
    <g s:x="0" s:y="10" s:pid="A"/>
    <g s:x="25" s:y="10" s:pid="Y"/>
  </g>
  <g s:type="not" transform="translate(245,83)" s:width="30" s:height="20" id="cell_$not$gate_level.v:46$4">
    <s:alias val="$_NOT_"/>
    <s:alias val="$not"/>
    <s:alias val="$logic_not"/>
    <path d="M0,0 L0,20 L20,10 Z" class="cell_$not$gate_level.v:46$4"/>
    <circle cx="23" cy="10" r="3" class="cell_$not$gate_level.v:46$4"/>
    <g s:x="0" s:y="10" s:pid="A"/>
    <g s:x="25" s:y="10" s:pid="Y"/>
  </g>
  <g s:type="mux" transform="translate(375,55.5)" s:width="20" s:height="40" id="cell_$ternary$gate_level.v:47$6">
    <s:alias val="$pmux"/>
    <s:alias val="$mux"/>
    <s:alias val="$_MUX_"/>
    <path d="M0,0 L20,10 L20,30 L0,40 Z" class="cell_$ternary$gate_level.v:47$6"/>
    <g s:x="0" s:y="10" s:pid="A"/>
    <g s:x="0" s:y="30" s:pid="B"/>
    <g s:x="10" s:y="35" s:pid="S"/>
    <g s:x="20" s:y="20" s:pid="Y"/>
  </g>
  <g s:type="outputExt" transform="translate(375,150.5)" s:width="30" s:height="20" id="cell_in_ack">
    <text x="15" y="-4" class="nodelabel cell_in_ack" s:attribute="ref">in_ack</text>
    <s:alias val="$_outputExt_"/>
    <path d="M30,0 L30,20 L15,20 L0,10 L15,0 Z" class="cell_in_ack"/>
    <g s:x="0" s:y="10" s:pid="A"/>
  </g>
  <g s:type="outputExt" transform="translate(375,215.5)" s:width="30" s:height="20" id="cell_out_req">
    <text x="15" y="-4" class="nodelabel cell_out_req" s:attribute="ref">out_req</text>
    <s:alias val="$_outputExt_"/>
    <path d="M30,0 L30,20 L15,20 L0,10 L15,0 Z" class="cell_out_req"/>
    <g s:x="0" s:y="10" s:pid="A"/>
  </g>
  <g s:type="outputExt" transform="translate(108,22)" s:width="30" s:height="20" id="cell_out_data">
    <text x="15" y="-4" class="nodelabel cell_out_data" s:attribute="ref">out_data</text>
    <s:alias val="$_outputExt_"/>
    <path d="M30,0 L30,20 L15,20 L0,10 L15,0 Z" class="cell_out_data"/>
    <g s:x="0" s:y="10" s:pid="A"/>
  </g>
  <g s:type="inputExt" transform="translate(168,83)" s:width="30" s:height="20" id="cell_in_req">
    <text x="15" y="-4" class="nodelabel cell_in_req" s:attribute="ref">in_req</text>
    <s:alias val="$_inputExt_"/>
    <path d="M0,0 L0,20 L15,20 L30,10 L15,0 Z" class="cell_in_req"/>
    <g s:x="28" s:y="10" s:pid="Y"/>
  </g>
  <g s:type="inputExt" transform="translate(168,148)" s:width="30" s:height="20" id="cell_out_ack">
    <text x="15" y="-4" class="nodelabel cell_out_ack" s:attribute="ref">out_ack</text>
    <s:alias val="$_inputExt_"/>
    <path d="M0,0 L0,20 L15,20 L30,10 L15,0 Z" class="cell_out_ack"/>
    <g s:x="28" s:y="10" s:pid="Y"/>
  </g>
  <g s:type="inputExt" transform="translate(54,22)" s:width="30" s:height="20" id="cell_in_data">
    <text x="15" y="-4" class="nodelabel cell_in_data" s:attribute="ref">in_data</text>
    <s:alias val="$_inputExt_"/>
    <path d="M0,0 L0,20 L15,20 L30,10 L15,0 Z" class="cell_in_data"/>
    <g s:x="28" s:y="10" s:pid="Y"/>
  </g>
  <g s:type="inputExt" transform="translate(12,22)" s:width="30" s:height="20" id="cell_reset">
    <text x="15" y="-4" class="nodelabel cell_reset" s:attribute="ref">reset</text>
    <s:alias val="$_inputExt_"/>
    <path d="M0,0 L0,20 L15,20 L30,10 L15,0 Z" class="cell_reset"/>
    <g s:x="28" s:y="10" s:pid="Y"/>
  </g>
  <line x1="196" x2="220" y1="93" y2="93" class="net_35"/>
  <line x1="220" x2="220" y1="93" y2="12" class="net_35"/>
  <line x1="220" x2="285" y1="12" y2="12" class="net_35"/>
  <line x1="285" x2="285" y1="12" y2="18" class="net_35"/>
  <circle cx="220" cy="93" r="2" style="fill:#000" class="net_35"/>
  <line x1="285" x2="310" y1="18" y2="18" class="net_35"/>
  <line x1="196" x2="245" y1="93" y2="93" class="net_35"/>
  <line x1="270" x2="310" y1="33" y2="33" class="net_70"/>
  <line x1="196" x2="230" y1="158" y2="158" class="net_36"/>
  <line x1="230" x2="230" y1="158" y2="72" class="net_36"/>
  <line x1="230" x2="285" y1="72" y2="72" class="net_36"/>
  <line x1="285" x2="285" y1="72" y2="78" class="net_36"/>
  <circle cx="230" cy="72" r="2" style="fill:#000" class="net_36"/>
  <line x1="285" x2="310" y1="78" y2="78" class="net_36"/>
  <line x1="196" x2="230" y1="158" y2="158" class="net_36"/>
  <line x1="230" x2="230" y1="158" y2="33" class="net_36"/>
  <line x1="230" x2="245" y1="33" y2="33" class="net_36"/>
  <line x1="270" x2="310" y1="93" y2="93" class="net_72"/>
  <line x1="350" x2="375" y1="280.5" y2="280.5" class="net_2"/>
  <line x1="350" x2="350" y1="280.5" y2="130.5" class="net_2"/>
  <line x1="350" x2="385" y1="130.5" y2="130.5" class="net_2"/>
  <line x1="385" x2="385" y1="130.5" y2="90.5" class="net_2"/>
  <line x1="350" x2="350" y1="280.5" y2="160.5" class="net_2"/>
  <circle cx="350" cy="160.5" r="2" style="fill:#000" class="net_2"/>
  <line x1="350" x2="375" y1="160.5" y2="160.5" class="net_2"/>
  <line x1="350" x2="350" y1="280.5" y2="225.5" class="net_2"/>
  <circle cx="350" cy="225.5" r="2" style="fill:#000" class="net_2"/>
  <line x1="350" x2="375" y1="225.5" y2="225.5" class="net_2"/>
  <line x1="340" x2="350" y1="25.5" y2="25.5" class="net_71"/>
  <line x1="350" x2="350" y1="25.5" y2="65.5" class="net_71"/>
  <line x1="350" x2="375" y1="65.5" y2="65.5" class="net_71"/>
  <line x1="340" x2="375" y1="85.5" y2="85.5" class="net_73"/>
</svg>
