<svg xmlns="http://www.w3.org/2000/svg" xmlns:xlink="http://www.w3.org/1999/xlink" xmlns:s="https://github.com/nturley/netlistsvg" width="438" height="356.5">
  <style>svg {
    stroke:#000;
    fill:none;
  }
  text {
    fill:#000;
    stroke:none;
    font-size:10px;
    font-weight: bold;
    font-family: "Courier New", monospace;
  }
  .nodelabel {
    text-anchor: middle;
  }
  .inputPortLabel {
    text-anchor: end;
  }
  .splitjoinBody {
    fill:#000;
  }</style>
  <g s:type="and" transform="translate(384,79.5)" s:width="30" s:height="25" id="cell_$and$gate_level.v:54$6">
    <s:alias val="$and"/>
    <s:alias val="$logic_and"/>
    <s:alias val="$_AND_"/>
    <path d="M0,0 L0,25 L15,25 A15 12.5 0 0 0 15,0 Z" class="cell_$and$gate_level.v:54$6"/>
    <g s:x="0" s:y="5" s:pid="A"/>
    <g s:x="0" s:y="20" s:pid="B"/>
    <g s:x="30" s:y="12.5" s:pid="Y"/>
  </g>
  <g s:type="not" transform="translate(384,259.5)" s:width="30" s:height="20" id="cell_$not$gate_level.v:50$1">
    <s:alias val="$_NOT_"/>
    <s:alias val="$not"/>
    <s:alias val="$logic_not"/>
    <path d="M0,0 L0,20 L20,10 Z" class="cell_$not$gate_level.v:50$1"/>
    <circle cx="23" cy="10" r="3" class="cell_$not$gate_level.v:50$1"/>
    <g s:x="0" s:y="10" s:pid="A"/>
    <g s:x="25" s:y="10" s:pid="Y"/>
  </g>
  <g s:type="not" transform="translate(384,139.5)" s:width="30" s:height="20" id="cell_$not$gate_level.v:51$2">
    <s:alias val="$_NOT_"/>
    <s:alias val="$not"/>
    <s:alias val="$logic_not"/>
    <path d="M0,0 L0,20 L20,10 Z" class="cell_$not$gate_level.v:51$2"/>
    <circle cx="23" cy="10" r="3" class="cell_$not$gate_level.v:51$2"/>
    <g s:x="0" s:y="10" s:pid="A"/>
    <g s:x="25" s:y="10" s:pid="Y"/>
  </g>
  <g s:type="not" transform="translate(317.5,29.5)" s:width="30" s:height="20" id="cell_$not$gate_level.v:52$4">
    <s:alias val="$_NOT_"/>
    <s:alias val="$not"/>
    <s:alias val="$logic_not"/>
    <path d="M0,0 L0,20 L20,10 Z" class="cell_$not$gate_level.v:52$4"/>
    <circle cx="23" cy="10" r="3" class="cell_$not$gate_level.v:52$4"/>
    <g s:x="0" s:y="10" s:pid="A"/>
    <g s:x="25" s:y="10" s:pid="Y"/>
  </g>
  <g s:type="reduce_xor" transform="translate(246,27)" s:width="33" s:height="25" id="cell_$xor$gate_level.v:52$3">
    <s:alias val="$xor"/>
    <s:alias val="$reduce_xor"/>
    <s:alias val="$_XOR_"/>
    <path d="M3,0 A30 25 0 0 1 3,25 A30 25 0 0 0 33,12.5 A30 25 0 0 0 3,0" class="cell_$xor$gate_level.v:52$3"/>
    <path d="M0,0 A30 25 0 0 1 0,25" class="cell_$xor$gate_level.v:52$3"/>
    <g s:x="3" s:y="5" s:pid="A"/>
    <g s:x="3" s:y="20" s:pid="B"/>
    <g s:x="33" s:y="12.5" s:pid="Y"/>
  </g>
  <g s:type="reduce_xor" transform="translate(316,87)" s:width="33" s:height="25" id="cell_$xor$gate_level.v:53$5">
    <s:alias val="$xor"/>
    <s:alias val="$reduce_xor"/>
    <s:alias val="$_XOR_"/>
    <path d="M3,0 A30 25 0 0 1 3,25 A30 25 0 0 0 33,12.5 A30 25 0 0 0 3,0" class="cell_$xor$gate_level.v:53$5"/>
    <path d="M0,0 A30 25 0 0 1 0,25" class="cell_$xor$gate_level.v:53$5"/>
    <g s:x="3" s:y="5" s:pid="A"/>
    <g s:x="3" s:y="20" s:pid="B"/>
    <g s:x="33" s:y="12.5" s:pid="Y"/>
  </g>
  <g s:type="inputExt" transform="translate(12,22)" s:width="30" s:height="20" id="cell_reset">
    <text x="15" y="-4" class="nodelabel cell_reset" s:attribute="ref">reset</text>
    <s:alias val="$_inputExt_"/>
    <path d="M0,0 L0,20 L15,20 L30,10 L15,0 Z" class="cell_reset"/>
    <g s:x="28" s:y="10" s:pid="Y"/>
  </g>
  <g s:type="outputExt" transform="translate(384,204.5)" s:width="30" s:height="20" id="cell_in_ack">
    <text x="15" y="-4" class="nodelabel cell_in_ack" s:attribute="ref">in_ack</text>
    <s:alias val="$_outputExt_"/>
    <path d="M30,0 L30,20 L15,20 L0,10 L15,0 Z" class="cell_in_ack"/>
    <g s:x="0" s:y="10" s:pid="A"/>
  </g>
  <g s:type="inputExt" transform="translate(245,97)" s:width="30" s:height="20" id="cell_in_req">
    <text x="15" y="-4" class="nodelabel cell_in_req" s:attribute="ref">in_req</text>
    <s:alias val="$_inputExt_"/>
    <path d="M0,0 L0,20 L15,20 L30,10 L15,0 Z" class="cell_in_req"/>
    <g s:x="28" s:y="10" s:pid="Y"/>
  </g>
  <g s:type="inputExt" transform="translate(54,22)" s:width="30" s:height="20" id="cell_in_data">
    <text x="15" y="-4" class="nodelabel cell_in_data" s:attribute="ref">in_data</text>
    <s:alias val="$_inputExt_"/>
    <path d="M0,0 L0,20 L15,20 L30,10 L15,0 Z" class="cell_in_data"/>
    <g s:x="28" s:y="10" s:pid="Y"/>
  </g>
  <g s:type="outputExt" transform="translate(384,324.5)" s:width="30" s:height="20" id="cell_out_req">
    <text x="15" y="-4" class="nodelabel cell_out_req" s:attribute="ref">out_req</text>
    <s:alias val="$_outputExt_"/>
    <path d="M30,0 L30,20 L15,20 L0,10 L15,0 Z" class="cell_out_req"/>
    <g s:x="0" s:y="10" s:pid="A"/>
  </g>
  <g s:type="outputExt" transform="translate(108,22)" s:width="30" s:height="20" id="cell_out_data">
    <text x="15" y="-4" class="nodelabel cell_out_data" s:attribute="ref">out_data</text>
    <s:alias val="$_outputExt_"/>
    <path d="M30,0 L30,20 L15,20 L0,10 L15,0 Z" class="cell_out_data"/>
    <g s:x="0" s:y="10" s:pid="A"/>
  </g>
  <g s:type="inputExt" transform="translate(168,22)" s:width="30" s:height="20" id="cell_out_ack">
    <text x="15" y="-4" class="nodelabel cell_out_ack" s:attribute="ref">out_ack</text>
    <s:alias val="$_inputExt_"/>
    <path d="M0,0 L0,20 L15,20 L30,10 L15,0 Z" class="cell_out_ack"/>
    <g s:x="28" s:y="10" s:pid="Y"/>
  </g>
  <line x1="342.5" x2="359" y1="39.5" y2="39.5" class="net_71"/>
  <line x1="359" x2="359" y1="39.5" y2="84.5" class="net_71"/>
  <line x1="359" x2="384" y1="84.5" y2="84.5" class="net_71"/>
  <line x1="349" x2="384" y1="99.5" y2="99.5" class="net_72"/>
  <line x1="220" x2="359" y1="334.5" y2="269.5" class="net_37"/>
  <circle cx="359" cy="334.5" r="2" style="fill:#000" class="net_37"/>
  <line x1="359" x2="384" y1="269.5" y2="269.5" class="net_37"/>
  <line x1="220" x2="220" y1="334.5" y2="47" class="net_37"/>
  <line x1="220" x2="249" y1="47" y2="47" class="net_37"/>
  <line x1="220" x2="384" y1="334.5" y2="334.5" class="net_37"/>
  <line x1="291" x2="359" y1="214.5" y2="149.5" class="net_3"/>
  <circle cx="359" cy="214.5" r="2" style="fill:#000" class="net_3"/>
  <line x1="359" x2="384" y1="149.5" y2="149.5" class="net_3"/>
  <line x1="291" x2="291" y1="214.5" y2="92" class="net_3"/>
  <line x1="291" x2="319" y1="92" y2="92" class="net_3"/>
  <line x1="291" x2="384" y1="214.5" y2="214.5" class="net_3"/>
  <line x1="279" x2="317.5" y1="39.5" y2="39.5" class="net_76"/>
  <line x1="196" x2="249" y1="32" y2="32" class="net_70"/>
  <line x1="273" x2="319" y1="107" y2="107" class="net_4"/>
</svg>
