<svg xmlns="http://www.w3.org/2000/svg" xmlns:xlink="http://www.w3.org/1999/xlink" xmlns:s="https://github.com/nturley/netlistsvg" width="1096" height="520.5">
  <style>svg {
    stroke:#000;
    fill:none;
  }
  text {
    fill:#000;
    stroke:none;
    font-size:10px;
    font-weight: bold;
    font-family: "Courier New", monospace;
  }
  .nodelabel {
    text-anchor: middle;
  }
  .inputPortLabel {
    text-anchor: end;
  }
  .splitjoinBody {
    fill:#000;
  }</style>
  <g s:type="not" transform="translate(1010,33)" s:width="30" s:height="20" id="cell_$abc$99$auto$blifparse.cc:371:parse_blif$100">
    <s:alias val="$_NOT_"/>
    <s:alias val="$not"/>
    <s:alias val="$logic_not"/>
    <path d="M0,0 L0,20 L20,10 Z" class="cell_$abc$99$auto$blifparse.cc:371:parse_blif$100"/>
    <circle cx="23" cy="10" r="3" class="cell_$abc$99$auto$blifparse.cc:371:parse_blif$100"/>
    <g s:x="0" s:y="10" s:pid="A"/>
    <g s:x="25" s:y="10" s:pid="Y"/>
  </g>
  <g s:type="nand" transform="translate(512,233.5)" s:width="30" s:height="25" id="cell_$abc$99$auto$blifparse.cc:371:parse_blif$101">
    <s:alias val="$nand"/>
    <s:alias val="$logic_nand"/>
    <s:alias val="$_NAND_"/>
    <s:alias val="$_ANDNOT_"/>
    <path d="M0,0 L0,25 L15,25 A15 12.5 0 0 0 15,0 Z" class="cell_$abc$99$auto$blifparse.cc:371:parse_blif$101"/>
    <circle cx="34" cy="12.5" r="3" class="cell_$abc$99$auto$blifparse.cc:371:parse_blif$101"/>
    <g s:x="0" s:y="5" s:pid="A"/>
    <g s:x="0" s:y="20" s:pid="B"/>
    <g s:x="36" s:y="12.5" s:pid="Y"/>
  </g>
  <g s:type="nand" transform="translate(512,293.5)" s:width="30" s:height="25" id="cell_$abc$99$auto$blifparse.cc:371:parse_blif$102">
    <s:alias val="$nand"/>
    <s:alias val="$logic_nand"/>
    <s:alias val="$_NAND_"/>
    <s:alias val="$_ANDNOT_"/>
    <path d="M0,0 L0,25 L15,25 A15 12.5 0 0 0 15,0 Z" class="cell_$abc$99$auto$blifparse.cc:371:parse_blif$102"/>
    <circle cx="34" cy="12.5" r="3" class="cell_$abc$99$auto$blifparse.cc:371:parse_blif$102"/>
    <g s:x="0" s:y="5" s:pid="A"/>
    <g s:x="0" s:y="20" s:pid="B"/>
    <g s:x="36" s:y="12.5" s:pid="Y"/>
  </g>
  <g s:type="mux" transform="translate(585,276)" s:width="20" s:height="40" id="cell_$abc$99$auto$blifparse.cc:371:parse_blif$103">
    <s:alias val="$pmux"/>
    <s:alias val="$mux"/>
    <s:alias val="$_MUX_"/>
    <path d="M0,0 L20,10 L20,30 L0,40 Z" class="cell_$abc$99$auto$blifparse.cc:371:parse_blif$103"/>
    <g s:x="0" s:y="10" s:pid="A"/>
    <g s:x="0" s:y="30" s:pid="B"/>
    <g s:x="10" s:y="35" s:pid="S"/>
    <g s:x="20" s:y="20" s:pid="Y"/>
  </g>
  <g s:type="reduce_nxor" transform="translate(932,160.5)" s:width="33" s:height="25" id="cell_$abc$99$auto$blifparse.cc:371:parse_blif$104">
    <s:alias val="$xnor"/>
    <s:alias val="$reduce_xnor"/>
    <s:alias val="$_XNOR_"/>
    <path d="M3,0 A30 25 0 0 1 3,25 A30 25 0 0 0 33,12.5 A30 25 0 0 0 3,0" class="cell_$abc$99$auto$blifparse.cc:371:parse_blif$104"/>
    <path d="M0,0 A30 25 0 0 1 0,25" class="cell_$abc$99$auto$blifparse.cc:371:parse_blif$104"/>
    <circle cx="35" cy="12.5" r="3" class="cell_$abc$99$auto$blifparse.cc:371:parse_blif$104"/>
    <g s:x="3" s:y="5" s:pid="A"/>
    <g s:x="3" s:y="20" s:pid="B"/>
    <g s:x="38" s:y="12.5" s:pid="Y"/>
  </g>
  <g s:type="reduce_nxor" transform="translate(932,225.5)" s:width="33" s:height="25" id="cell_$abc$99$auto$blifparse.cc:371:parse_blif$105">
    <s:alias val="$xnor"/>
    <s:alias val="$reduce_xnor"/>
    <s:alias val="$_XNOR_"/>
    <path d="M3,0 A30 25 0 0 1 3,25 A30 25 0 0 0 33,12.5 A30 25 0 0 0 3,0" class="cell_$abc$99$auto$blifparse.cc:371:parse_blif$105"/>
    <path d="M0,0 A30 25 0 0 1 0,25" class="cell_$abc$99$auto$blifparse.cc:371:parse_blif$105"/>
    <circle cx="35" cy="12.5" r="3" class="cell_$abc$99$auto$blifparse.cc:371:parse_blif$105"/>
    <g s:x="3" s:y="5" s:pid="A"/>
    <g s:x="3" s:y="20" s:pid="B"/>
    <g s:x="38" s:y="12.5" s:pid="Y"/>
  </g>
  <g s:type="and" transform="translate(1010,218)" s:width="30" s:height="25" id="cell_$abc$99$auto$blifparse.cc:371:parse_blif$106">
    <s:alias val="$and"/>
    <s:alias val="$logic_and"/>
    <s:alias val="$_AND_"/>
    <path d="M0,0 L0,25 L15,25 A15 12.5 0 0 0 15,0 Z" class="cell_$abc$99$auto$blifparse.cc:371:parse_blif$106"/>
    <g s:x="0" s:y="5" s:pid="A"/>
    <g s:x="0" s:y="20" s:pid="B"/>
    <g s:x="30" s:y="12.5" s:pid="Y"/>
  </g>
  <g s:type="reduce_xor" transform="translate(1010,401)" s:width="33" s:height="25" id="cell_$abc$99$auto$blifparse.cc:371:parse_blif$107">
    <s:alias val="$xor"/>
    <s:alias val="$reduce_xor"/>
    <s:alias val="$_XOR_"/>
    <path d="M3,0 A30 25 0 0 1 3,25 A30 25 0 0 0 33,12.5 A30 25 0 0 0 3,0" class="cell_$abc$99$auto$blifparse.cc:371:parse_blif$107"/>
    <path d="M0,0 A30 25 0 0 1 0,25" class="cell_$abc$99$auto$blifparse.cc:371:parse_blif$107"/>
    <g s:x="3" s:y="5" s:pid="A"/>
    <g s:x="3" s:y="20" s:pid="B"/>
    <g s:x="33" s:y="12.5" s:pid="Y"/>
  </g>
  <g s:type="reduce_nxor" transform="translate(1010,341)" s:width="33" s:height="25" id="cell_$abc$99$auto$blifparse.cc:371:parse_blif$108">
    <s:alias val="$xnor"/>
    <s:alias val="$reduce_xnor"/>
    <s:alias val="$_XNOR_"/>
    <path d="M3,0 A30 25 0 0 1 3,25 A30 25 0 0 0 33,12.5 A30 25 0 0 0 3,0" class="cell_$abc$99$auto$blifparse.cc:371:parse_blif$108"/>
    <path d="M0,0 A30 25 0 0 1 0,25" class="cell_$abc$99$auto$blifparse.cc:371:parse_blif$108"/>
    <circle cx="35" cy="12.5" r="3" class="cell_$abc$99$auto$blifparse.cc:371:parse_blif$108"/>
    <g s:x="3" s:y="5" s:pid="A"/>
    <g s:x="3" s:y="20" s:pid="B"/>
    <g s:x="38" s:y="12.5" s:pid="Y"/>
  </g>
  <g s:type="generic" transform="translate(233,97.5)" s:width="30" s:height="40" id="cell_$auto$simplemap.cc:496:simplemap_adff$86">
    <text x="15" y="-4" class="nodelabel cell_$auto$simplemap.cc:496:simplemap_adff$86" s:attribute="ref">$_DFF_PP0_</text>
    <rect width="30" height="60" s:generic="body" class="cell_$auto$simplemap.cc:496:simplemap_adff$86"/>
    <g transform="translate(0,10)" s:x="0" s:y="10" s:pid="in0" id="port_$auto$simplemap.cc:496:simplemap_adff$86~C">
      <text x="-3" y="-4" class="inputPortLabel cell_$auto$simplemap.cc:496:simplemap_adff$86">C</text>
    </g>
    <g transform="translate(0,30)" s:x="0" s:y="10" s:pid="in0" id="port_$auto$simplemap.cc:496:simplemap_adff$86~D">
      <text x="-3" y="-4" class="inputPortLabel cell_$auto$simplemap.cc:496:simplemap_adff$86">D</text>
    </g>
    <g transform="translate(0,50)" s:x="0" s:y="10" s:pid="in0" id="port_$auto$simplemap.cc:496:simplemap_adff$86~R">
      <text x="-3" y="-4" class="inputPortLabel cell_$auto$simplemap.cc:496:simplemap_adff$86">R</text>
    </g>
    <g transform="translate(30,10)" s:x="30" s:y="10" s:pid="out0" id="port_$auto$simplemap.cc:496:simplemap_adff$86~Q">
      <text x="5" y="-4" style="fill:#000; stroke:none" class="cell_$auto$simplemap.cc:496:simplemap_adff$86">Q</text>
    </g>
  </g>
  <g s:type="generic" transform="translate(652,395.5)" s:width="30" s:height="40" id="cell_$auto$simplemap.cc:496:simplemap_adff$87">
    <text x="15" y="-4" class="nodelabel cell_$auto$simplemap.cc:496:simplemap_adff$87" s:attribute="ref">$_DFF_PP0_</text>
    <rect width="30" height="60" s:generic="body" class="cell_$auto$simplemap.cc:496:simplemap_adff$87"/>
    <g transform="translate(0,10)" s:x="0" s:y="10" s:pid="in0" id="port_$auto$simplemap.cc:496:simplemap_adff$87~C">
      <text x="-3" y="-4" class="inputPortLabel cell_$auto$simplemap.cc:496:simplemap_adff$87">C</text>
    </g>
    <g transform="translate(0,30)" s:x="0" s:y="10" s:pid="in0" id="port_$auto$simplemap.cc:496:simplemap_adff$87~D">
      <text x="-3" y="-4" class="inputPortLabel cell_$auto$simplemap.cc:496:simplemap_adff$87">D</text>
    </g>
    <g transform="translate(0,50)" s:x="0" s:y="10" s:pid="in0" id="port_$auto$simplemap.cc:496:simplemap_adff$87~R">
      <text x="-3" y="-4" class="inputPortLabel cell_$auto$simplemap.cc:496:simplemap_adff$87">R</text>
    </g>
    <g transform="translate(30,10)" s:x="30" s:y="10" s:pid="out0" id="port_$auto$simplemap.cc:496:simplemap_adff$87~Q">
      <text x="5" y="-4" style="fill:#000; stroke:none" class="cell_$auto$simplemap.cc:496:simplemap_adff$87">Q</text>
    </g>
  </g>
  <g s:type="generic" transform="translate(652,285.5)" s:width="30" s:height="40" id="cell_$auto$simplemap.cc:496:simplemap_adff$88">
    <text x="15" y="-4" class="nodelabel cell_$auto$simplemap.cc:496:simplemap_adff$88" s:attribute="ref">$_DFF_PP0_</text>
    <rect width="30" height="60" s:generic="body" class="cell_$auto$simplemap.cc:496:simplemap_adff$88"/>
    <g transform="translate(0,10)" s:x="0" s:y="10" s:pid="in0" id="port_$auto$simplemap.cc:496:simplemap_adff$88~C">
      <text x="-3" y="-4" class="inputPortLabel cell_$auto$simplemap.cc:496:simplemap_adff$88">C</text>
    </g>
    <g transform="translate(0,30)" s:x="0" s:y="10" s:pid="in0" id="port_$auto$simplemap.cc:496:simplemap_adff$88~D">
      <text x="-3" y="-4" class="inputPortLabel cell_$auto$simplemap.cc:496:simplemap_adff$88">D</text>
    </g>
    <g transform="translate(0,50)" s:x="0" s:y="10" s:pid="in0" id="port_$auto$simplemap.cc:496:simplemap_adff$88~R">
      <text x="-3" y="-4" class="inputPortLabel cell_$auto$simplemap.cc:496:simplemap_adff$88">R</text>
    </g>
    <g transform="translate(30,10)" s:x="30" s:y="10" s:pid="out0" id="port_$auto$simplemap.cc:496:simplemap_adff$88~Q">
      <text x="5" y="-4" style="fill:#000; stroke:none" class="cell_$auto$simplemap.cc:496:simplemap_adff$88">Q</text>
    </g>
  </g>
  <g s:type="inputExt" transform="translate(161,436)" s:width="30" s:height="20" id="cell_reset">
    <text x="15" y="-4" class="nodelabel cell_reset" s:attribute="ref">reset</text>
    <s:alias val="$_inputExt_"/>
    <path d="M0,0 L0,20 L15,20 L30,10 L15,0 Z" class="cell_reset"/>
    <g s:x="28" s:y="10" s:pid="Y"/>
  </g>
  <g s:type="inputExt" transform="translate(508,416)" s:width="30" s:height="20" id="cell_inA_req">
    <text x="15" y="-4" class="nodelabel cell_inA_req" s:attribute="ref">inA_req</text>
    <s:alias val="$_inputExt_"/>
    <path d="M0,0 L0,20 L15,20 L30,10 L15,0 Z" class="cell_inA_req"/>
    <g s:x="28" s:y="10" s:pid="Y"/>
  </g>
  <g s:type="inputExt" transform="translate(12,22)" s:width="30" s:height="20" id="cell_inA_data">
    <text x="15" y="-4" class="nodelabel cell_inA_data" s:attribute="ref">inA_data</text>
    <s:alias val="$_inputExt_"/>
    <path d="M0,0 L0,20 L15,20 L30,10 L15,0 Z" class="cell_inA_data"/>
    <g s:x="28" s:y="10" s:pid="Y"/>
  </g>
  <g s:type="outputExt" transform="translate(1010,98)" s:width="30" s:height="20" id="cell_inA_ack">
    <text x="15" y="-4" class="nodelabel cell_inA_ack" s:attribute="ref">inA_ack</text>
    <s:alias val="$_outputExt_"/>
    <path d="M30,0 L30,20 L15,20 L0,10 L15,0 Z" class="cell_inA_ack"/>
    <g s:x="0" s:y="10" s:pid="A"/>
  </g>
  <g s:type="inputExt" transform="translate(233,288.5)" s:width="30" s:height="20" id="cell_inSel_req">
    <text x="15" y="-4" class="nodelabel cell_inSel_req" s:attribute="ref">inSel_req</text>
    <s:alias val="$_inputExt_"/>
    <path d="M0,0 L0,20 L15,20 L30,10 L15,0 Z" class="cell_inSel_req"/>
    <g s:x="28" s:y="10" s:pid="Y"/>
  </g>
  <g s:type="outputExt" transform="translate(1010,163)" s:width="30" s:height="20" id="cell_inSel_ack">
    <text x="15" y="-4" class="nodelabel cell_inSel_ack" s:attribute="ref">inSel_ack</text>
    <s:alias val="$_outputExt_"/>
    <path d="M30,0 L30,20 L15,20 L0,10 L15,0 Z" class="cell_inSel_ack"/>
    <g s:x="0" s:y="10" s:pid="A"/>
  </g>
  <g s:type="inputExt" transform="translate(927,351)" s:width="30" s:height="20" id="cell_selector">
    <text x="15" y="-4" class="nodelabel cell_selector" s:attribute="ref">selector</text>
    <s:alias val="$_inputExt_"/>
    <path d="M0,0 L0,20 L15,20 L30,10 L15,0 Z" class="cell_selector"/>
    <g s:x="28" s:y="10" s:pid="Y"/>
  </g>
  <g s:type="outputExt" transform="translate(1010,488.5)" s:width="30" s:height="20" id="cell_outB_req">
    <text x="15" y="-4" class="nodelabel cell_outB_req" s:attribute="ref">outB_req</text>
    <s:alias val="$_outputExt_"/>
    <path d="M30,0 L30,20 L15,20 L0,10 L15,0 Z" class="cell_outB_req"/>
    <g s:x="0" s:y="10" s:pid="A"/>
  </g>
  <g s:type="outputExt" transform="translate(95,87)" s:width="30" s:height="20" id="cell_outB_data">
    <text x="15" y="-4" class="nodelabel cell_outB_data" s:attribute="ref">outB_data</text>
    <s:alias val="$_outputExt_"/>
    <path d="M30,0 L30,20 L15,20 L0,10 L15,0 Z" class="cell_outB_data"/>
    <g s:x="0" s:y="10" s:pid="A"/>
  </g>
  <g s:type="inputExt" transform="translate(652,170.5)" s:width="30" s:height="20" id="cell_outB_ack">
    <text x="15" y="-4" class="nodelabel cell_outB_ack" s:attribute="ref">outB_ack</text>
    <s:alias val="$_inputExt_"/>
    <path d="M0,0 L0,20 L15,20 L30,10 L15,0 Z" class="cell_outB_ack"/>
    <g s:x="28" s:y="10" s:pid="Y"/>
  </g>
  <g s:type="outputExt" transform="translate(1010,286)" s:width="30" s:height="20" id="cell_outC_req">
    <text x="15" y="-4" class="nodelabel cell_outC_req" s:attribute="ref">outC_req</text>
    <s:alias val="$_outputExt_"/>
    <path d="M30,0 L30,20 L15,20 L0,10 L15,0 Z" class="cell_outC_req"/>
    <g s:x="0" s:y="10" s:pid="A"/>
  </g>
  <g s:type="outputExt" transform="translate(95,22)" s:width="30" s:height="20" id="cell_outC_data">
    <text x="15" y="-4" class="nodelabel cell_outC_data" s:attribute="ref">outC_data</text>
    <s:alias val="$_outputExt_"/>
    <path d="M30,0 L30,20 L15,20 L0,10 L15,0 Z" class="cell_outC_data"/>
    <g s:x="0" s:y="10" s:pid="A"/>
  </g>
  <g s:type="inputExt" transform="translate(652,235.5)" s:width="30" s:height="20" id="cell_outC_ack">
    <text x="15" y="-4" class="nodelabel cell_outC_ack" s:attribute="ref">outC_ack</text>
    <s:alias val="$_inputExt_"/>
    <path d="M0,0 L0,20 L15,20 L30,10 L15,0 Z" class="cell_outC_ack"/>
    <g s:x="28" s:y="10" s:pid="Y"/>
  </g>
  <line x1="264" x2="995" y1="108" y2="108" class="net_36"/>
  <line x1="995" x2="995" y1="108" y2="43" class="net_36"/>
  <circle cx="995" cy="108" r="2" style="fill:#000" class="net_36"/>
  <line x1="995" x2="1010" y1="43" y2="43" class="net_36"/>
  <line x1="264" x2="483" y1="108" y2="108" class="net_36"/>
  <line x1="483" x2="483" y1="108" y2="238.5" class="net_36"/>
  <circle cx="483" cy="108" r="2" style="fill:#000" class="net_36"/>
  <circle cx="483" cy="238.5" r="2" style="fill:#000" class="net_36"/>
  <line x1="483" x2="512" y1="238.5" y2="238.5" class="net_36"/>
  <line x1="264" x2="483" y1="108" y2="108" class="net_36"/>
  <line x1="483" x2="483" y1="108" y2="313.5" class="net_36"/>
  <line x1="483" x2="512" y1="313.5" y2="313.5" class="net_36"/>
  <line x1="264" x2="1010" y1="108" y2="108" class="net_36"/>
  <line x1="264" x2="995" y1="108" y2="108" class="net_36"/>
  <line x1="995" x2="995" y1="108" y2="173" class="net_36"/>
  <line x1="995" x2="1010" y1="173" y2="173" class="net_36"/>
  <line x1="261" x2="493" y1="298.5" y2="298.5" class="net_37"/>
  <line x1="493" x2="493" y1="298.5" y2="253.5" class="net_37"/>
  <circle cx="493" cy="298.5" r="2" style="fill:#000" class="net_37"/>
  <line x1="493" x2="512" y1="253.5" y2="253.5" class="net_37"/>
  <line x1="261" x2="512" y1="298.5" y2="298.5" class="net_37"/>
  <line x1="548" x2="560" y1="246" y2="246" class="net_44"/>
  <line x1="560" x2="560" y1="246" y2="286" class="net_44"/>
  <line x1="560" x2="585" y1="286" y2="286" class="net_44"/>
  <line x1="548" x2="585" y1="306" y2="306" class="net_45"/>
  <line x1="536" x2="595" y1="426" y2="426" class="net_3"/>
  <line x1="595" x2="595" y1="426" y2="311" class="net_3"/>
  <line x1="683" x2="902" y1="406" y2="406" class="net_39"/>
  <line x1="902" x2="902" y1="406" y2="165.5" class="net_39"/>
  <circle cx="902" cy="406" r="2" style="fill:#000" class="net_39"/>
  <line x1="902" x2="935" y1="165.5" y2="165.5" class="net_39"/>
  <line x1="683" x2="1013" y1="406" y2="406" class="net_39"/>
  <line x1="683" x2="902" y1="406" y2="406" class="net_39"/>
  <line x1="902" x2="902" y1="406" y2="498.5" class="net_39"/>
  <line x1="902" x2="1010" y1="498.5" y2="498.5" class="net_39"/>
  <line x1="680" x2="935" y1="180.5" y2="180.5" class="net_40"/>
  <line x1="683" x2="912" y1="296" y2="296" class="net_41"/>
  <line x1="912" x2="912" y1="296" y2="230.5" class="net_41"/>
  <circle cx="912" cy="296" r="2" style="fill:#000" class="net_41"/>
  <line x1="912" x2="935" y1="230.5" y2="230.5" class="net_41"/>
  <line x1="683" x2="985" y1="296" y2="296" class="net_41"/>
  <line x1="985" x2="985" y1="296" y2="346" class="net_41"/>
  <circle cx="985" cy="296" r="2" style="fill:#000" class="net_41"/>
  <line x1="985" x2="1013" y1="346" y2="346" class="net_41"/>
  <line x1="683" x2="1010" y1="296" y2="296" class="net_41"/>
  <line x1="680" x2="935" y1="245.5" y2="245.5" class="net_42"/>
  <line x1="970" x2="985" y1="173" y2="173" class="net_47"/>
  <line x1="985" x2="985" y1="173" y2="223" class="net_47"/>
  <line x1="985" x2="1010" y1="223" y2="223" class="net_47"/>
  <line x1="970" x2="1010" y1="238" y2="238" class="net_48"/>
  <line x1="955" x2="985" y1="361" y2="361" class="net_38"/>
  <line x1="985" x2="985" y1="361" y2="421" class="net_38"/>
  <circle cx="985" cy="361" r="2" style="fill:#000" class="net_38"/>
  <line x1="985" x2="1013" y1="421" y2="421" class="net_38"/>
  <line x1="955" x2="1013" y1="361" y2="361" class="net_38"/>
  <line x1="1040" x2="1074" y1="230.5" y2="230.5" class="net_49"/>
  <line x1="1074" x2="1074" y1="230.5" y2="23" class="net_49"/>
  <line x1="1074" x2="211" y1="23" y2="23" class="net_49"/>
  <line x1="211" x2="211" y1="23" y2="108" class="net_49"/>
  <line x1="211" x2="233" y1="108" y2="108" class="net_49"/>
  <line x1="1035" x2="1084" y1="43" y2="43" class="net_43"/>
  <line x1="1084" x2="1084" y1="43" y2="12" class="net_43"/>
  <line x1="1084" x2="201" y1="12" y2="12" class="net_43"/>
  <line x1="201" x2="201" y1="12" y2="128" class="net_43"/>
  <line x1="201" x2="233" y1="128" y2="128" class="net_43"/>
  <line x1="189" x2="201" y1="446" y2="446" class="net_2"/>
  <line x1="201" x2="201" y1="446" y2="148" class="net_2"/>
  <circle cx="201" cy="446" r="2" style="fill:#000" class="net_2"/>
  <line x1="201" x2="233" y1="148" y2="148" class="net_2"/>
  <line x1="189" x2="652" y1="446" y2="446" class="net_2"/>
  <line x1="189" x2="625" y1="446" y2="446" class="net_2"/>
  <line x1="625" x2="625" y1="446" y2="336" class="net_2"/>
  <circle cx="625" cy="446" r="2" style="fill:#000" class="net_2"/>
  <line x1="625" x2="652" y1="336" y2="336" class="net_2"/>
  <line x1="605" x2="615" y1="296" y2="296" class="net_46"/>
  <line x1="615" x2="615" y1="296" y2="406" class="net_46"/>
  <circle cx="615" cy="296" r="2" style="fill:#000" class="net_46"/>
  <line x1="615" x2="652" y1="406" y2="406" class="net_46"/>
  <line x1="605" x2="652" y1="296" y2="296" class="net_46"/>
  <line x1="1043" x2="1074" y1="413.5" y2="413.5" class="net_50"/>
  <line x1="1074" x2="1074" y1="413.5" y2="468.5" class="net_50"/>
  <line x1="1074" x2="635" y1="468.5" y2="468.5" class="net_50"/>
  <line x1="635" x2="635" y1="468.5" y2="426" class="net_50"/>
  <line x1="635" x2="652" y1="426" y2="426" class="net_50"/>
  <line x1="1048" x2="1074" y1="353.5" y2="353.5" class="net_51"/>
  <line x1="1074" x2="1074" y1="353.5" y2="265.5" class="net_51"/>
  <line x1="1074" x2="635" y1="265.5" y2="265.5" class="net_51"/>
  <line x1="635" x2="635" y1="265.5" y2="316" class="net_51"/>
  <line x1="635" x2="652" y1="316" y2="316" class="net_51"/>
  <line x1="40" x2="70" y1="32" y2="32" class="net_4,5,6,7,8,9,10,11,12,13,14,15,16,17,18,19,20,21,22,23,24,25,26,27,28,29,30,31,32,33,34,35"/>
  <line x1="70" x2="70" y1="32" y2="97" class="net_4,5,6,7,8,9,10,11,12,13,14,15,16,17,18,19,20,21,22,23,24,25,26,27,28,29,30,31,32,33,34,35"/>
  <circle cx="70" cy="32" r="2" style="fill:#000" class="net_4,5,6,7,8,9,10,11,12,13,14,15,16,17,18,19,20,21,22,23,24,25,26,27,28,29,30,31,32,33,34,35"/>
  <line x1="70" x2="95" y1="97" y2="97" class="net_4,5,6,7,8,9,10,11,12,13,14,15,16,17,18,19,20,21,22,23,24,25,26,27,28,29,30,31,32,33,34,35"/>
  <line x1="40" x2="95" y1="32" y2="32" class="net_4,5,6,7,8,9,10,11,12,13,14,15,16,17,18,19,20,21,22,23,24,25,26,27,28,29,30,31,32,33,34,35"/>
</svg>
