<svg xmlns="http://www.w3.org/2000/svg" xmlns:xlink="http://www.w3.org/1999/xlink" xmlns:s="https://github.com/nturley/netlistsvg" width="500" height="653.5">
  <style>svg {
    stroke:#000;
    fill:none;
  }
  text {
    fill:#000;
    stroke:none;
    font-size:10px;
    font-weight: bold;
    font-family: "Courier New", monospace;
  }
  .nodelabel {
    text-anchor: middle;
  }
  .inputPortLabel {
    text-anchor: end;
  }
  .splitjoinBody {
    fill:#000;
  }</style>
  <g s:type="and" transform="translate(361,214.5)" s:width="30" s:height="25" id="cell_$and$gate_level.v:82$2">
    <s:alias val="$and"/>
    <s:alias val="$logic_and"/>
    <s:alias val="$_AND_"/>
    <path d="M0,0 L0,25 L15,25 A15 12.5 0 0 0 15,0 Z" class="cell_$and$gate_level.v:82$2"/>
    <g s:x="0" s:y="5" s:pid="A"/>
    <g s:x="0" s:y="20" s:pid="B"/>
    <g s:x="30" s:y="12.5" s:pid="Y"/>
  </g>
  <g s:type="and" transform="translate(246,604)" s:width="30" s:height="25" id="cell_$and$gate_level.v:86$8">
    <s:alias val="$and"/>
    <s:alias val="$logic_and"/>
    <s:alias val="$_AND_"/>
    <path d="M0,0 L0,25 L15,25 A15 12.5 0 0 0 15,0 Z" class="cell_$and$gate_level.v:86$8"/>
    <g s:x="0" s:y="5" s:pid="A"/>
    <g s:x="0" s:y="20" s:pid="B"/>
    <g s:x="30" s:y="12.5" s:pid="Y"/>
  </g>
  <g s:type="and" transform="translate(361,154.5)" s:width="30" s:height="25" id="cell_$and$gate_level.v:90$13">
    <s:alias val="$and"/>
    <s:alias val="$logic_and"/>
    <s:alias val="$_AND_"/>
    <path d="M0,0 L0,25 L15,25 A15 12.5 0 0 0 15,0 Z" class="cell_$and$gate_level.v:90$13"/>
    <g s:x="0" s:y="5" s:pid="A"/>
    <g s:x="0" s:y="20" s:pid="B"/>
    <g s:x="30" s:y="12.5" s:pid="Y"/>
  </g>
  <g s:type="not" transform="translate(292,224.5)" s:width="30" s:height="20" id="cell_$not$gate_level.v:82$1">
    <s:alias val="$_NOT_"/>
    <s:alias val="$not"/>
    <s:alias val="$logic_not"/>
    <path d="M0,0 L0,20 L20,10 Z" class="cell_$not$gate_level.v:82$1"/>
    <circle cx="23" cy="10" r="3" class="cell_$not$gate_level.v:82$1"/>
    <g s:x="0" s:y="10" s:pid="A"/>
    <g s:x="25" s:y="10" s:pid="Y"/>
  </g>
  <g s:type="not" transform="translate(172,549)" s:width="30" s:height="20" id="cell_$not$gate_level.v:84$5">
    <s:alias val="$_NOT_"/>
    <s:alias val="$not"/>
    <s:alias val="$logic_not"/>
    <path d="M0,0 L0,20 L20,10 Z" class="cell_$not$gate_level.v:84$5"/>
    <circle cx="23" cy="10" r="3" class="cell_$not$gate_level.v:84$5"/>
    <g s:x="0" s:y="10" s:pid="A"/>
    <g s:x="25" s:y="10" s:pid="Y"/>
  </g>
  <g s:type="not" transform="translate(172,614)" s:width="30" s:height="20" id="cell_$not$gate_level.v:85$7">
    <s:alias val="$_NOT_"/>
    <s:alias val="$not"/>
    <s:alias val="$logic_not"/>
    <path d="M0,0 L0,20 L20,10 Z" class="cell_$not$gate_level.v:85$7"/>
    <circle cx="23" cy="10" r="3" class="cell_$not$gate_level.v:85$7"/>
    <g s:x="0" s:y="10" s:pid="A"/>
    <g s:x="25" s:y="10" s:pid="Y"/>
  </g>
  <g s:type="not" transform="translate(434,12)" s:width="30" s:height="20" id="cell_$not$gate_level.v:89$11">
    <s:alias val="$_NOT_"/>
    <s:alias val="$not"/>
    <s:alias val="$logic_not"/>
    <path d="M0,0 L0,20 L20,10 Z" class="cell_$not$gate_level.v:89$11"/>
    <circle cx="23" cy="10" r="3" class="cell_$not$gate_level.v:89$11"/>
    <g s:x="0" s:y="10" s:pid="A"/>
    <g s:x="25" s:y="10" s:pid="Y"/>
  </g>
  <g s:type="not" transform="translate(292,164.5)" s:width="30" s:height="20" id="cell_$not$gate_level.v:90$12">
    <s:alias val="$_NOT_"/>
    <s:alias val="$not"/>
    <s:alias val="$logic_not"/>
    <path d="M0,0 L0,20 L20,10 Z" class="cell_$not$gate_level.v:90$12"/>
    <circle cx="23" cy="10" r="3" class="cell_$not$gate_level.v:90$12"/>
    <g s:x="0" s:y="10" s:pid="A"/>
    <g s:x="25" s:y="10" s:pid="Y"/>
  </g>
  <g s:type="mux" transform="translate(434,197)" s:width="20" s:height="40" id="cell_$ternary$gate_level.v:83$3">
    <s:alias val="$pmux"/>
    <s:alias val="$mux"/>
    <s:alias val="$_MUX_"/>
    <path d="M0,0 L20,10 L20,30 L0,40 Z" class="cell_$ternary$gate_level.v:83$3"/>
    <g s:x="0" s:y="10" s:pid="A"/>
    <g s:x="0" s:y="30" s:pid="B"/>
    <g s:x="10" s:y="35" s:pid="S"/>
    <g s:x="20" s:y="20" s:pid="Y"/>
  </g>
  <g s:type="reduce_xor" transform="translate(95,546.5)" s:width="33" s:height="25" id="cell_$xor$gate_level.v:84$4">
    <s:alias val="$xor"/>
    <s:alias val="$reduce_xor"/>
    <s:alias val="$_XOR_"/>
    <path d="M3,0 A30 25 0 0 1 3,25 A30 25 0 0 0 33,12.5 A30 25 0 0 0 3,0" class="cell_$xor$gate_level.v:84$4"/>
    <path d="M0,0 A30 25 0 0 1 0,25" class="cell_$xor$gate_level.v:84$4"/>
    <g s:x="3" s:y="5" s:pid="A"/>
    <g s:x="3" s:y="20" s:pid="B"/>
    <g s:x="33" s:y="12.5" s:pid="Y"/>
  </g>
  <g s:type="reduce_xor" transform="translate(95,611.5)" s:width="33" s:height="25" id="cell_$xor$gate_level.v:85$6">
    <s:alias val="$xor"/>
    <s:alias val="$reduce_xor"/>
    <s:alias val="$_XOR_"/>
    <path d="M3,0 A30 25 0 0 1 3,25 A30 25 0 0 0 33,12.5 A30 25 0 0 0 3,0" class="cell_$xor$gate_level.v:85$6"/>
    <path d="M0,0 A30 25 0 0 1 0,25" class="cell_$xor$gate_level.v:85$6"/>
    <g s:x="3" s:y="5" s:pid="A"/>
    <g s:x="3" s:y="20" s:pid="B"/>
    <g s:x="33" s:y="12.5" s:pid="Y"/>
  </g>
  <g s:type="reduce_xor" transform="translate(246,506.5)" s:width="33" s:height="25" id="cell_$xor$gate_level.v:87$9">
    <s:alias val="$xor"/>
    <s:alias val="$reduce_xor"/>
    <s:alias val="$_XOR_"/>
    <path d="M3,0 A30 25 0 0 1 3,25 A30 25 0 0 0 33,12.5 A30 25 0 0 0 3,0" class="cell_$xor$gate_level.v:87$9"/>
    <path d="M0,0 A30 25 0 0 1 0,25" class="cell_$xor$gate_level.v:87$9"/>
    <g s:x="3" s:y="5" s:pid="A"/>
    <g s:x="3" s:y="20" s:pid="B"/>
    <g s:x="33" s:y="12.5" s:pid="Y"/>
  </g>
  <g s:type="reduce_xor" transform="translate(246,446.5)" s:width="33" s:height="25" id="cell_$xor$gate_level.v:88$10">
    <s:alias val="$xor"/>
    <s:alias val="$reduce_xor"/>
    <s:alias val="$_XOR_"/>
    <path d="M3,0 A30 25 0 0 1 3,25 A30 25 0 0 0 33,12.5 A30 25 0 0 0 3,0" class="cell_$xor$gate_level.v:88$10"/>
    <path d="M0,0 A30 25 0 0 1 0,25" class="cell_$xor$gate_level.v:88$10"/>
    <g s:x="3" s:y="5" s:pid="A"/>
    <g s:x="3" s:y="20" s:pid="B"/>
    <g s:x="33" s:y="12.5" s:pid="Y"/>
  </g>
  <g s:type="inputExt" transform="translate(12,22)" s:width="30" s:height="20" id="cell_reset">
    <text x="15" y="-4" class="nodelabel cell_reset" s:attribute="ref">reset</text>
    <s:alias val="$_inputExt_"/>
    <path d="M0,0 L0,20 L15,20 L30,10 L15,0 Z" class="cell_reset"/>
    <g s:x="28" s:y="10" s:pid="Y"/>
  </g>
  <g s:type="inputExt" transform="translate(357,284.5)" s:width="30" s:height="20" id="cell_inA_req">
    <text x="15" y="-4" class="nodelabel cell_inA_req" s:attribute="ref">inA_req</text>
    <s:alias val="$_inputExt_"/>
    <path d="M0,0 L0,20 L15,20 L30,10 L15,0 Z" class="cell_inA_req"/>
    <g s:x="28" s:y="10" s:pid="Y"/>
  </g>
  <g s:type="inputExt" transform="translate(54,22)" s:width="30" s:height="20" id="cell_inA_data">
    <text x="15" y="-4" class="nodelabel cell_inA_data" s:attribute="ref">inA_data</text>
    <s:alias val="$_inputExt_"/>
    <path d="M0,0 L0,20 L15,20 L30,10 L15,0 Z" class="cell_inA_data"/>
    <g s:x="28" s:y="10" s:pid="Y"/>
  </g>
  <g s:type="outputExt" transform="translate(434,77)" s:width="30" s:height="20" id="cell_inA_ack">
    <text x="15" y="-4" class="nodelabel cell_inA_ack" s:attribute="ref">inA_ack</text>
    <s:alias val="$_outputExt_"/>
    <path d="M30,0 L30,20 L15,20 L0,10 L15,0 Z" class="cell_inA_ack"/>
    <g s:x="0" s:y="10" s:pid="A"/>
  </g>
  <g s:type="inputExt" transform="translate(203,203.5)" s:width="30" s:height="20" id="cell_inSel_req">
    <text x="15" y="-4" class="nodelabel cell_inSel_req" s:attribute="ref">inSel_req</text>
    <s:alias val="$_inputExt_"/>
    <path d="M0,0 L0,20 L15,20 L30,10 L15,0 Z" class="cell_inSel_req"/>
    <g s:x="28" s:y="10" s:pid="Y"/>
  </g>
  <g s:type="outputExt" transform="translate(434,142)" s:width="30" s:height="20" id="cell_inSel_ack">
    <text x="15" y="-4" class="nodelabel cell_inSel_ack" s:attribute="ref">inSel_ack</text>
    <s:alias val="$_outputExt_"/>
    <path d="M30,0 L30,20 L15,20 L0,10 L15,0 Z" class="cell_inSel_ack"/>
    <g s:x="0" s:y="10" s:pid="A"/>
  </g>
  <g s:type="inputExt" transform="translate(163,456.5)" s:width="30" s:height="20" id="cell_selector">
    <text x="15" y="-4" class="nodelabel cell_selector" s:attribute="ref">selector</text>
    <s:alias val="$_inputExt_"/>
    <path d="M0,0 L0,20 L15,20 L30,10 L15,0 Z" class="cell_selector"/>
    <g s:x="28" s:y="10" s:pid="Y"/>
  </g>
  <g s:type="outputExt" transform="translate(246,391.5)" s:width="30" s:height="20" id="cell_outB_req">
    <text x="15" y="-4" class="nodelabel cell_outB_req" s:attribute="ref">outB_req</text>
    <s:alias val="$_outputExt_"/>
    <path d="M30,0 L30,20 L15,20 L0,10 L15,0 Z" class="cell_outB_req"/>
    <g s:x="0" s:y="10" s:pid="A"/>
  </g>
  <g s:type="outputExt" transform="translate(137,22)" s:width="30" s:height="20" id="cell_outB_data">
    <text x="15" y="-4" class="nodelabel cell_outB_data" s:attribute="ref">outB_data</text>
    <s:alias val="$_outputExt_"/>
    <path d="M30,0 L30,20 L15,20 L0,10 L15,0 Z" class="cell_outB_data"/>
    <g s:x="0" s:y="10" s:pid="A"/>
  </g>
  <g s:type="inputExt" transform="translate(12,556.5)" s:width="30" s:height="20" id="cell_outB_ack">
    <text x="15" y="-4" class="nodelabel cell_outB_ack" s:attribute="ref">outB_ack</text>
    <s:alias val="$_inputExt_"/>
    <path d="M0,0 L0,20 L15,20 L30,10 L15,0 Z" class="cell_outB_ack"/>
    <g s:x="28" s:y="10" s:pid="Y"/>
  </g>
  <g s:type="outputExt" transform="translate(246,326.5)" s:width="30" s:height="20" id="cell_outC_req">
    <text x="15" y="-4" class="nodelabel cell_outC_req" s:attribute="ref">outC_req</text>
    <s:alias val="$_outputExt_"/>
    <path d="M30,0 L30,20 L15,20 L0,10 L15,0 Z" class="cell_outC_req"/>
    <g s:x="0" s:y="10" s:pid="A"/>
  </g>
  <g s:type="outputExt" transform="translate(137,87)" s:width="30" s:height="20" id="cell_outC_data">
    <text x="15" y="-4" class="nodelabel cell_outC_data" s:attribute="ref">outC_data</text>
    <s:alias val="$_outputExt_"/>
    <path d="M30,0 L30,20 L15,20 L0,10 L15,0 Z" class="cell_outC_data"/>
    <g s:x="0" s:y="10" s:pid="A"/>
  </g>
  <g s:type="inputExt" transform="translate(12,621.5)" s:width="30" s:height="20" id="cell_outC_ack">
    <text x="15" y="-4" class="nodelabel cell_outC_ack" s:attribute="ref">outC_ack</text>
    <s:alias val="$_inputExt_"/>
    <path d="M0,0 L0,20 L15,20 L30,10 L15,0 Z" class="cell_outC_ack"/>
    <g s:x="28" s:y="10" s:pid="Y"/>
  </g>
  <line x1="231" x2="332" y1="213.5" y2="213.5" class="net_37"/>
  <line x1="332" x2="332" y1="213.5" y2="219.5" class="net_37"/>
  <line x1="332" x2="361" y1="219.5" y2="219.5" class="net_37"/>
  <line x1="231" x2="277" y1="213.5" y2="213.5" class="net_37"/>
  <line x1="277" x2="277" y1="213.5" y2="174.5" class="net_37"/>
  <circle cx="277" cy="213.5" r="2" style="fill:#000" class="net_37"/>
  <line x1="277" x2="292" y1="174.5" y2="174.5" class="net_37"/>
  <line x1="317" x2="361" y1="234.5" y2="234.5" class="net_43"/>
  <line x1="197" x2="221" y1="559" y2="559" class="net_45"/>
  <line x1="221" x2="221" y1="559" y2="609" class="net_45"/>
  <line x1="221" x2="246" y1="609" y2="609" class="net_45"/>
  <line x1="197" x2="246" y1="624" y2="624" class="net_46"/>
  <line x1="267" x2="332" y1="87" y2="159.5" class="net_36"/>
  <circle cx="332" cy="87" r="2" style="fill:#000" class="net_36"/>
  <line x1="332" x2="361" y1="159.5" y2="159.5" class="net_36"/>
  <line x1="267" x2="267" y1="87" y2="234.5" class="net_36"/>
  <line x1="267" x2="292" y1="234.5" y2="234.5" class="net_36"/>
  <line x1="267" x2="409" y1="87" y2="22" class="net_36"/>
  <circle cx="409" cy="87" r="2" style="fill:#000" class="net_36"/>
  <line x1="409" x2="434" y1="22" y2="22" class="net_36"/>
  <line x1="267" x2="434" y1="87" y2="87" class="net_36"/>
  <line x1="267" x2="409" y1="87" y2="152" class="net_36"/>
  <line x1="409" x2="434" y1="152" y2="152" class="net_36"/>
  <line x1="317" x2="361" y1="174.5" y2="174.5" class="net_48"/>
  <line x1="128" x2="172" y1="559" y2="559" class="net_50"/>
  <line x1="128" x2="172" y1="624" y2="624" class="net_51"/>
  <line x1="391" x2="409" y1="167" y2="167" class="net_49"/>
  <line x1="409" x2="409" y1="167" y2="207" class="net_49"/>
  <line x1="409" x2="434" y1="207" y2="207" class="net_49"/>
  <line x1="391" x2="434" y1="227" y2="227" class="net_44"/>
  <line x1="385" x2="444" y1="294.5" y2="294.5" class="net_3"/>
  <line x1="444" x2="444" y1="294.5" y2="232" class="net_3"/>
  <line x1="80" x2="80" y1="511.5" y2="551.5" class="net_39"/>
  <circle cx="80" cy="511.5" r="2" style="fill:#000" class="net_39"/>
  <line x1="80" x2="98" y1="551.5" y2="551.5" class="net_39"/>
  <line x1="80" x2="249" y1="511.5" y2="511.5" class="net_39"/>
  <line x1="80" x2="80" y1="511.5" y2="401.5" class="net_39"/>
  <line x1="80" x2="246" y1="401.5" y2="401.5" class="net_39"/>
  <line x1="40" x2="98" y1="566.5" y2="566.5" class="net_40"/>
  <line x1="70" x2="70" y1="435.5" y2="616.5" class="net_41"/>
  <circle cx="70" cy="435.5" r="2" style="fill:#000" class="net_41"/>
  <line x1="70" x2="98" y1="616.5" y2="616.5" class="net_41"/>
  <line x1="70" x2="221" y1="435.5" y2="451.5" class="net_41"/>
  <line x1="221" x2="249" y1="451.5" y2="451.5" class="net_41"/>
  <line x1="70" x2="70" y1="435.5" y2="336.5" class="net_41"/>
  <line x1="70" x2="246" y1="336.5" y2="336.5" class="net_41"/>
  <line x1="40" x2="98" y1="631.5" y2="631.5" class="net_42"/>
  <line x1="191" x2="221" y1="466.5" y2="466.5" class="net_38"/>
  <line x1="221" x2="221" y1="466.5" y2="526.5" class="net_38"/>
  <circle cx="221" cy="466.5" r="2" style="fill:#000" class="net_38"/>
  <line x1="221" x2="249" y1="526.5" y2="526.5" class="net_38"/>
  <line x1="191" x2="249" y1="466.5" y2="466.5" class="net_38"/>
  <line x1="82" x2="137" y1="32" y2="32" class="net_4,5,6,7,8,9,10,11,12,13,14,15,16,17,18,19,20,21,22,23,24,25,26,27,28,29,30,31,32,33,34,35"/>
  <line x1="82" x2="112" y1="32" y2="32" class="net_4,5,6,7,8,9,10,11,12,13,14,15,16,17,18,19,20,21,22,23,24,25,26,27,28,29,30,31,32,33,34,35"/>
  <line x1="112" x2="112" y1="32" y2="97" class="net_4,5,6,7,8,9,10,11,12,13,14,15,16,17,18,19,20,21,22,23,24,25,26,27,28,29,30,31,32,33,34,35"/>
  <circle cx="112" cy="32" r="2" style="fill:#000" class="net_4,5,6,7,8,9,10,11,12,13,14,15,16,17,18,19,20,21,22,23,24,25,26,27,28,29,30,31,32,33,34,35"/>
  <line x1="112" x2="137" y1="97" y2="97" class="net_4,5,6,7,8,9,10,11,12,13,14,15,16,17,18,19,20,21,22,23,24,25,26,27,28,29,30,31,32,33,34,35"/>
</svg>
