<svg xmlns="http://www.w3.org/2000/svg" xmlns:xlink="http://www.w3.org/1999/xlink" xmlns:s="https://github.com/nturley/netlistsvg" width="407" height="184">
  <style>svg {
    stroke:#000;
    fill:none;
  }
  text {
    fill:#000;
    stroke:none;
    font-size:10px;
    font-weight: bold;
    font-family: "Courier New", monospace;
  }
  .nodelabel {
    text-anchor: middle;
  }
  .inputPortLabel {
    text-anchor: end;
  }
  .splitjoinBody {
    fill:#000;
  }</style>
  <g s:type="generic" transform="translate(90,66.5)" s:width="30" s:height="40" id="cell_$auto$simplemap.cc:496:simplemap_adff$48">
    <text x="15" y="-4" class="nodelabel cell_$auto$simplemap.cc:496:simplemap_adff$48" s:attribute="ref">$_DFF_PN0_</text>
    <rect width="30" height="60" s:generic="body" class="cell_$auto$simplemap.cc:496:simplemap_adff$48"/>
    <g transform="translate(0,10)" s:x="0" s:y="10" s:pid="in0" id="port_$auto$simplemap.cc:496:simplemap_adff$48~C">
      <text x="-3" y="-4" class="inputPortLabel cell_$auto$simplemap.cc:496:simplemap_adff$48">C</text>
    </g>
    <g transform="translate(0,30)" s:x="0" s:y="10" s:pid="in0" id="port_$auto$simplemap.cc:496:simplemap_adff$48~D">
      <text x="-3" y="-4" class="inputPortLabel cell_$auto$simplemap.cc:496:simplemap_adff$48">D</text>
    </g>
    <g transform="translate(0,50)" s:x="0" s:y="10" s:pid="in0" id="port_$auto$simplemap.cc:496:simplemap_adff$48~R">
      <text x="-3" y="-4" class="inputPortLabel cell_$auto$simplemap.cc:496:simplemap_adff$48">R</text>
    </g>
    <g transform="translate(30,10)" s:x="30" s:y="10" s:pid="out0" id="port_$auto$simplemap.cc:496:simplemap_adff$48~Q">
      <text x="5" y="-4" style="fill:#000; stroke:none" class="cell_$auto$simplemap.cc:496:simplemap_adff$48">Q</text>
    </g>
  </g>
  <g s:type="outputExt" transform="translate(365,67)" s:width="30" s:height="20" id="cell_o_q">
    <text x="15" y="-4" class="nodelabel cell_o_q" s:attribute="ref">o_q</text>
    <s:alias val="$_outputExt_"/>
    <path d="M30,0 L30,20 L15,20 L0,10 L15,0 Z" class="cell_o_q"/>
    <g s:x="0" s:y="10" s:pid="A"/>
  </g>
  <g s:type="inputExt" transform="translate(12,87)" s:width="30" s:height="20" id="cell_i_d">
    <text x="15" y="-4" class="nodelabel cell_i_d" s:attribute="ref">i_d</text>
    <s:alias val="$_inputExt_"/>
    <path d="M0,0 L0,20 L15,20 L30,10 L15,0 Z" class="cell_i_d"/>
    <g s:x="28" s:y="10" s:pid="Y"/>
  </g>
  <g s:type="inputExt" transform="translate(12,22)" s:width="30" s:height="20" id="cell_i_clk">
    <text x="15" y="-4" class="nodelabel cell_i_clk" s:attribute="ref">i_clk</text>
    <s:alias val="$_inputExt_"/>
    <path d="M0,0 L0,20 L15,20 L30,10 L15,0 Z" class="cell_i_clk"/>
    <g s:x="28" s:y="10" s:pid="Y"/>
  </g>
  <g s:type="inputExt" transform="translate(12,152)" s:width="30" s:height="20" id="cell_i_rstn">
    <text x="15" y="-4" class="nodelabel cell_i_rstn" s:attribute="ref">i_rstn</text>
    <s:alias val="$_inputExt_"/>
    <path d="M0,0 L0,20 L15,20 L30,10 L15,0 Z" class="cell_i_rstn"/>
    <g s:x="28" s:y="10" s:pid="Y"/>
  </g>
  <line x1="40" x2="58" y1="32" y2="32" class="net_4"/>
  <line x1="58" x2="58" y1="32" y2="77" class="net_4"/>
  <line x1="58" x2="90" y1="77" y2="77" class="net_4"/>
  <line x1="40" x2="90" y1="97" y2="97" class="net_3"/>
  <line x1="40" x2="58" y1="162" y2="162" class="net_5"/>
  <line x1="58" x2="58" y1="162" y2="117" class="net_5"/>
  <line x1="58" x2="90" y1="117" y2="117" class="net_5"/>
  <line x1="121" x2="365" y1="77" y2="77" class="net_2"/>
</svg>
