<svg xmlns="http://www.w3.org/2000/svg" xmlns:xlink="http://www.w3.org/1999/xlink" xmlns:s="https://github.com/nturley/netlistsvg" width="601" height="355">
  <style>svg {
    stroke:#000;
    fill:none;
  }
  text {
    fill:#000;
    stroke:none;
    font-size:10px;
    font-weight: bold;
    font-family: "Courier New", monospace;
  }
  .nodelabel {
    text-anchor: middle;
  }
  .inputPortLabel {
    text-anchor: end;
  }
  .splitjoinBody {
    fill:#000;
  }</style>
  <g s:type="not" transform="translate(515,82.5)" s:width="30" s:height="20" id="cell_$abc$69$auto$blifparse.cc:371:parse_blif$70">
    <s:alias val="$_NOT_"/>
    <s:alias val="$not"/>
    <s:alias val="$logic_not"/>
    <path d="M0,0 L0,20 L20,10 Z" class="cell_$abc$69$auto$blifparse.cc:371:parse_blif$70"/>
    <circle cx="23" cy="10" r="3" class="cell_$abc$69$auto$blifparse.cc:371:parse_blif$70"/>
    <g s:x="0" s:y="10" s:pid="A"/>
    <g s:x="25" s:y="10" s:pid="Y"/>
  </g>
  <g s:type="not" transform="translate(515,258)" s:width="30" s:height="20" id="cell_$abc$69$auto$blifparse.cc:371:parse_blif$71">
    <s:alias val="$_NOT_"/>
    <s:alias val="$not"/>
    <s:alias val="$logic_not"/>
    <path d="M0,0 L0,20 L20,10 Z" class="cell_$abc$69$auto$blifparse.cc:371:parse_blif$71"/>
    <circle cx="23" cy="10" r="3" class="cell_$abc$69$auto$blifparse.cc:371:parse_blif$71"/>
    <g s:x="0" s:y="10" s:pid="A"/>
    <g s:x="25" s:y="10" s:pid="Y"/>
  </g>
  <g s:type="reduce_xor" transform="translate(515,202.5)" s:width="33" s:height="25" id="cell_$abc$69$auto$blifparse.cc:371:parse_blif$72">
    <s:alias val="$xor"/>
    <s:alias val="$reduce_xor"/>
    <s:alias val="$_XOR_"/>
    <path d="M3,0 A30 25 0 0 1 3,25 A30 25 0 0 0 33,12.5 A30 25 0 0 0 3,0" class="cell_$abc$69$auto$blifparse.cc:371:parse_blif$72"/>
    <path d="M0,0 A30 25 0 0 1 0,25" class="cell_$abc$69$auto$blifparse.cc:371:parse_blif$72"/>
    <g s:x="3" s:y="5" s:pid="A"/>
    <g s:x="3" s:y="20" s:pid="B"/>
    <g s:x="33" s:y="12.5" s:pid="Y"/>
  </g>
  <g s:type="reduce_xor" transform="translate(89,37)" s:width="33" s:height="25" id="cell_$abc$69$auto$blifparse.cc:371:parse_blif$73">
    <s:alias val="$xor"/>
    <s:alias val="$reduce_xor"/>
    <s:alias val="$_XOR_"/>
    <path d="M3,0 A30 25 0 0 1 3,25 A30 25 0 0 0 33,12.5 A30 25 0 0 0 3,0" class="cell_$abc$69$auto$blifparse.cc:371:parse_blif$73"/>
    <path d="M0,0 A30 25 0 0 1 0,25" class="cell_$abc$69$auto$blifparse.cc:371:parse_blif$73"/>
    <g s:x="3" s:y="5" s:pid="A"/>
    <g s:x="3" s:y="20" s:pid="B"/>
    <g s:x="33" s:y="12.5" s:pid="Y"/>
  </g>
  <g s:type="nand" transform="translate(157,29.5)" s:width="30" s:height="25" id="cell_$abc$69$auto$blifparse.cc:371:parse_blif$74">
    <s:alias val="$nand"/>
    <s:alias val="$logic_nand"/>
    <s:alias val="$_NAND_"/>
    <s:alias val="$_ANDNOT_"/>
    <path d="M0,0 L0,25 L15,25 A15 12.5 0 0 0 15,0 Z" class="cell_$abc$69$auto$blifparse.cc:371:parse_blif$74"/>
    <circle cx="34" cy="12.5" r="3" class="cell_$abc$69$auto$blifparse.cc:371:parse_blif$74"/>
    <g s:x="0" s:y="5" s:pid="A"/>
    <g s:x="0" s:y="20" s:pid="B"/>
    <g s:x="36" s:y="12.5" s:pid="Y"/>
  </g>
  <g s:type="generic" transform="translate(240,257.5)" s:width="30" s:height="40" id="cell_$auto$simplemap.cc:496:simplemap_adff$67">
    <text x="15" y="-4" class="nodelabel cell_$auto$simplemap.cc:496:simplemap_adff$67" s:attribute="ref">$_DFF_PN0_</text>
    <rect width="30" height="60" s:generic="body" class="cell_$auto$simplemap.cc:496:simplemap_adff$67"/>
    <g transform="translate(0,10)" s:x="0" s:y="10" s:pid="in0" id="port_$auto$simplemap.cc:496:simplemap_adff$67~C">
      <text x="-3" y="-4" class="inputPortLabel cell_$auto$simplemap.cc:496:simplemap_adff$67">C</text>
    </g>
    <g transform="translate(0,30)" s:x="0" s:y="10" s:pid="in0" id="port_$auto$simplemap.cc:496:simplemap_adff$67~D">
      <text x="-3" y="-4" class="inputPortLabel cell_$auto$simplemap.cc:496:simplemap_adff$67">D</text>
    </g>
    <g transform="translate(0,50)" s:x="0" s:y="10" s:pid="in0" id="port_$auto$simplemap.cc:496:simplemap_adff$67~R">
      <text x="-3" y="-4" class="inputPortLabel cell_$auto$simplemap.cc:496:simplemap_adff$67">R</text>
    </g>
    <g transform="translate(30,10)" s:x="30" s:y="10" s:pid="out0" id="port_$auto$simplemap.cc:496:simplemap_adff$67~Q">
      <text x="5" y="-4" style="fill:#000; stroke:none" class="cell_$auto$simplemap.cc:496:simplemap_adff$67">Q</text>
    </g>
  </g>
  <g s:type="generic" transform="translate(240,82)" s:width="30" s:height="40" id="cell_$auto$simplemap.cc:496:simplemap_adff$68">
    <text x="15" y="-4" class="nodelabel cell_$auto$simplemap.cc:496:simplemap_adff$68" s:attribute="ref">$_DFF_PN0_</text>
    <rect width="30" height="60" s:generic="body" class="cell_$auto$simplemap.cc:496:simplemap_adff$68"/>
    <g transform="translate(0,10)" s:x="0" s:y="10" s:pid="in0" id="port_$auto$simplemap.cc:496:simplemap_adff$68~C">
      <text x="-3" y="-4" class="inputPortLabel cell_$auto$simplemap.cc:496:simplemap_adff$68">C</text>
    </g>
    <g transform="translate(0,30)" s:x="0" s:y="10" s:pid="in0" id="port_$auto$simplemap.cc:496:simplemap_adff$68~D">
      <text x="-3" y="-4" class="inputPortLabel cell_$auto$simplemap.cc:496:simplemap_adff$68">D</text>
    </g>
    <g transform="translate(0,50)" s:x="0" s:y="10" s:pid="in0" id="port_$auto$simplemap.cc:496:simplemap_adff$68~R">
      <text x="-3" y="-4" class="inputPortLabel cell_$auto$simplemap.cc:496:simplemap_adff$68">R</text>
    </g>
    <g transform="translate(30,10)" s:x="30" s:y="10" s:pid="out0" id="port_$auto$simplemap.cc:496:simplemap_adff$68~Q">
      <text x="5" y="-4" style="fill:#000; stroke:none" class="cell_$auto$simplemap.cc:496:simplemap_adff$68">Q</text>
    </g>
  </g>
  <g s:type="outputExt" transform="translate(515,32)" s:width="30" s:height="20" id="cell_out_click">
    <text x="15" y="-4" class="nodelabel cell_out_click" s:attribute="ref">out_click</text>
    <s:alias val="$_outputExt_"/>
    <path d="M30,0 L30,20 L15,20 L0,10 L15,0 Z" class="cell_out_click"/>
    <g s:x="0" s:y="10" s:pid="A"/>
  </g>
  <g s:type="outputExt" transform="translate(515,147.5)" s:width="30" s:height="20" id="cell_out_ackL">
    <text x="15" y="-4" class="nodelabel cell_out_ackL" s:attribute="ref">out_ackL</text>
    <s:alias val="$_outputExt_"/>
    <path d="M30,0 L30,20 L15,20 L0,10 L15,0 Z" class="cell_out_ackL"/>
    <g s:x="0" s:y="10" s:pid="A"/>
  </g>
  <g s:type="outputExt" transform="translate(515,323)" s:width="30" s:height="20" id="cell_out_reqR">
    <text x="15" y="-4" class="nodelabel cell_out_reqR" s:attribute="ref">out_reqR</text>
    <s:alias val="$_outputExt_"/>
    <path d="M30,0 L30,20 L15,20 L0,10 L15,0 Z" class="cell_out_reqR"/>
    <g s:x="0" s:y="10" s:pid="A"/>
  </g>
  <g s:type="inputExt" transform="translate(240,197.5)" s:width="30" s:height="20" id="cell_in_reqL">
    <text x="15" y="-4" class="nodelabel cell_in_reqL" s:attribute="ref">in_reqL</text>
    <s:alias val="$_inputExt_"/>
    <path d="M0,0 L0,20 L15,20 L30,10 L15,0 Z" class="cell_in_reqL"/>
    <g s:x="28" s:y="10" s:pid="Y"/>
  </g>
  <g s:type="inputExt" transform="translate(12,32)" s:width="30" s:height="20" id="cell_in_ackR">
    <text x="15" y="-4" class="nodelabel cell_in_ackR" s:attribute="ref">in_ackR</text>
    <s:alias val="$_inputExt_"/>
    <path d="M0,0 L0,20 L15,20 L30,10 L15,0 Z" class="cell_in_ackR"/>
    <g s:x="28" s:y="10" s:pid="Y"/>
  </g>
  <g s:type="inputExt" transform="translate(157,122.5)" s:width="30" s:height="20" id="cell_i_rstn">
    <text x="15" y="-4" class="nodelabel cell_i_rstn" s:attribute="ref">i_rstn</text>
    <s:alias val="$_inputExt_"/>
    <path d="M0,0 L0,20 L15,20 L30,10 L15,0 Z" class="cell_i_rstn"/>
    <g s:x="28" s:y="10" s:pid="Y"/>
  </g>
  <line x1="271" x2="515" y1="92.5" y2="92.5" class="net_3"/>
  <line x1="271" x2="490" y1="92.5" y2="92.5" class="net_3"/>
  <line x1="490" x2="490" y1="92.5" y2="222.5" class="net_3"/>
  <circle cx="490" cy="92.5" r="2" style="fill:#000" class="net_3"/>
  <line x1="490" x2="518" y1="222.5" y2="222.5" class="net_3"/>
  <line x1="271" x2="490" y1="92.5" y2="92.5" class="net_3"/>
  <line x1="490" x2="490" y1="92.5" y2="157.5" class="net_3"/>
  <circle cx="490" cy="157.5" r="2" style="fill:#000" class="net_3"/>
  <line x1="490" x2="515" y1="157.5" y2="157.5" class="net_3"/>
  <line x1="271" x2="515" y1="268" y2="268" class="net_4"/>
  <line x1="271" x2="490" y1="268" y2="268" class="net_4"/>
  <line x1="490" x2="490" y1="268" y2="330.5" class="net_4"/>
  <line x1="490" x2="64" y1="330.5" y2="330.5" class="net_4"/>
  <line x1="64" x2="64" y1="330.5" y2="57" class="net_4"/>
  <circle cx="490" cy="330.5" r="2" style="fill:#000" class="net_4"/>
  <line x1="64" x2="92" y1="57" y2="57" class="net_4"/>
  <line x1="271" x2="490" y1="268" y2="268" class="net_4"/>
  <line x1="490" x2="490" y1="268" y2="333" class="net_4"/>
  <circle cx="490" cy="268" r="2" style="fill:#000" class="net_4"/>
  <line x1="490" x2="515" y1="333" y2="333" class="net_4"/>
  <line x1="268" x2="518" y1="207.5" y2="207.5" class="net_5"/>
  <line x1="40" x2="92" y1="42" y2="42" class="net_6"/>
  <line x1="548" x2="589" y1="215" y2="215" class="net_10"/>
  <line x1="589" x2="589" y1="215" y2="12" class="net_10"/>
  <line x1="589" x2="132" y1="12" y2="12" class="net_10"/>
  <line x1="132" x2="132" y1="12" y2="34.5" class="net_10"/>
  <line x1="132" x2="157" y1="34.5" y2="34.5" class="net_10"/>
  <line x1="122" x2="157" y1="49.5" y2="49.5" class="net_11"/>
  <line x1="193" x2="213" y1="42" y2="42" class="net_2"/>
  <line x1="213" x2="213" y1="42" y2="268" class="net_2"/>
  <circle cx="213" cy="42" r="2" style="fill:#000" class="net_2"/>
  <line x1="213" x2="240" y1="268" y2="268" class="net_2"/>
  <line x1="193" x2="213" y1="42" y2="42" class="net_2"/>
  <line x1="213" x2="213" y1="42" y2="92.5" class="net_2"/>
  <circle cx="213" cy="92.5" r="2" style="fill:#000" class="net_2"/>
  <line x1="213" x2="240" y1="92.5" y2="92.5" class="net_2"/>
  <line x1="193" x2="515" y1="42" y2="42" class="net_2"/>
  <line x1="540" x2="579" y1="268" y2="268" class="net_9"/>
  <line x1="579" x2="579" y1="268" y2="237.5" class="net_9"/>
  <line x1="579" x2="223" y1="237.5" y2="237.5" class="net_9"/>
  <line x1="223" x2="223" y1="237.5" y2="288" class="net_9"/>
  <line x1="223" x2="240" y1="288" y2="288" class="net_9"/>
  <line x1="185" x2="203" y1="132.5" y2="132.5" class="net_7"/>
  <line x1="203" x2="203" y1="132.5" y2="308" class="net_7"/>
  <circle cx="203" cy="132.5" r="2" style="fill:#000" class="net_7"/>
  <line x1="203" x2="240" y1="308" y2="308" class="net_7"/>
  <line x1="185" x2="240" y1="132.5" y2="132.5" class="net_7"/>
  <line x1="540" x2="579" y1="92.5" y2="92.5" class="net_8"/>
  <line x1="579" x2="579" y1="92.5" y2="62" class="net_8"/>
  <line x1="579" x2="223" y1="62" y2="62" class="net_8"/>
  <line x1="223" x2="223" y1="62" y2="112.5" class="net_8"/>
  <line x1="223" x2="240" y1="112.5" y2="112.5" class="net_8"/>
</svg>
