<svg xmlns="http://www.w3.org/2000/svg" xmlns:xlink="http://www.w3.org/1999/xlink" xmlns:s="https://github.com/nturley/netlistsvg" width="539" height="271">
  <style>svg {
    stroke:#000;
    fill:none;
  }
  text {
    fill:#000;
    stroke:none;
    font-size:10px;
    font-weight: bold;
    font-family: "Courier New", monospace;
  }
  .nodelabel {
    text-anchor: middle;
  }
  .inputPortLabel {
    text-anchor: end;
  }
  .splitjoinBody {
    fill:#000;
  }</style>
  <g s:type="mux" transform="translate(293.66666666666663,124.5)" s:width="20" s:height="40" id="cell_$abc$73$auto$blifparse.cc:371:parse_blif$74">
    <s:alias val="$pmux"/>
    <s:alias val="$mux"/>
    <s:alias val="$_MUX_"/>
    <path d="M0,0 L20,10 L20,30 L0,40 Z" class="cell_$abc$73$auto$blifparse.cc:371:parse_blif$74"/>
    <g s:x="0" s:y="10" s:pid="A"/>
    <g s:x="0" s:y="30" s:pid="B"/>
    <g s:x="10" s:y="35" s:pid="S"/>
    <g s:x="20" s:y="20" s:pid="Y"/>
  </g>
  <g s:type="mux" transform="translate(469,199)" s:width="20" s:height="40" id="cell_$abc$73$auto$blifparse.cc:371:parse_blif$75">
    <s:alias val="$pmux"/>
    <s:alias val="$mux"/>
    <s:alias val="$_MUX_"/>
    <path d="M0,0 L20,10 L20,30 L0,40 Z" class="cell_$abc$73$auto$blifparse.cc:371:parse_blif$75"/>
    <g s:x="0" s:y="10" s:pid="A"/>
    <g s:x="0" s:y="30" s:pid="B"/>
    <g s:x="10" s:y="35" s:pid="S"/>
    <g s:x="20" s:y="20" s:pid="Y"/>
  </g>
  <g s:type="nand" transform="translate(285,79.5)" s:width="30" s:height="25" id="cell_$abc$73$auto$blifparse.cc:371:parse_blif$76">
    <s:alias val="$nand"/>
    <s:alias val="$logic_nand"/>
    <s:alias val="$_NAND_"/>
    <s:alias val="$_ANDNOT_"/>
    <path d="M0,0 L0,25 L15,25 A15 12.5 0 0 0 15,0 Z" class="cell_$abc$73$auto$blifparse.cc:371:parse_blif$76"/>
    <circle cx="34" cy="12.5" r="3" class="cell_$abc$73$auto$blifparse.cc:371:parse_blif$76"/>
    <g s:x="0" s:y="5" s:pid="A"/>
    <g s:x="0" s:y="20" s:pid="B"/>
    <g s:x="36" s:y="12.5" s:pid="Y"/>
  </g>
  <g s:type="dff" transform="translate(356,62)" s:width="30" s:height="40" id="cell_$auto$simplemap.cc:420:simplemap_dff$69">
    <s:alias val="$dff"/>
    <s:alias val="$_DFF_"/>
    <s:alias val="$_DFF_P_"/>
    <rect width="30" height="40" x="0" y="0" class="cell_$auto$simplemap.cc:420:simplemap_dff$69"/>
    <path d="M0,35 L5,30 L0,25" class="cell_$auto$simplemap.cc:420:simplemap_dff$69"/>
    <g s:x="30" s:y="10" s:pid="Q"/>
    <g s:x="0" s:y="30" s:pid="CLK"/>
    <g s:x="0" s:y="30" s:pid="C"/>
    <g s:x="0" s:y="10" s:pid="D"/>
  </g>
  <g s:type="dff" transform="translate(356,134.5)" s:width="30" s:height="40" id="cell_$auto$simplemap.cc:420:simplemap_dff$70">
    <s:alias val="$dff"/>
    <s:alias val="$_DFF_"/>
    <s:alias val="$_DFF_P_"/>
    <rect width="30" height="40" x="0" y="0" class="cell_$auto$simplemap.cc:420:simplemap_dff$70"/>
    <path d="M0,35 L5,30 L0,25" class="cell_$auto$simplemap.cc:420:simplemap_dff$70"/>
    <g s:x="30" s:y="10" s:pid="Q"/>
    <g s:x="0" s:y="30" s:pid="CLK"/>
    <g s:x="0" s:y="30" s:pid="C"/>
    <g s:x="0" s:y="10" s:pid="D"/>
  </g>
  <g s:type="inputExt" transform="translate(208,239)" s:width="30" s:height="20" id="cell_reset">
    <text x="15" y="-4" class="nodelabel cell_reset" s:attribute="ref">reset</text>
    <s:alias val="$_inputExt_"/>
    <path d="M0,0 L0,20 L15,20 L30,10 L15,0 Z" class="cell_reset"/>
    <g s:x="28" s:y="10" s:pid="Y"/>
  </g>
  <g s:type="inputExt" transform="translate(131,164.5)" s:width="30" s:height="20" id="cell_in_data">
    <text x="15" y="-4" class="nodelabel cell_in_data" s:attribute="ref">in_data</text>
    <s:alias val="$_inputExt_"/>
    <path d="M0,0 L0,20 L15,20 L30,10 L15,0 Z" class="cell_in_data"/>
    <g s:x="28" s:y="10" s:pid="Y"/>
  </g>
  <g s:type="inputExt" transform="translate(208,24.5)" s:width="30" s:height="20" id="cell_in_req">
    <text x="15" y="-4" class="nodelabel cell_in_req" s:attribute="ref">in_req</text>
    <s:alias val="$_inputExt_"/>
    <path d="M0,0 L0,20 L15,20 L30,10 L15,0 Z" class="cell_in_req"/>
    <g s:x="28" s:y="10" s:pid="Y"/>
  </g>
  <g s:type="outputExt" transform="translate(77,87)" s:width="30" s:height="20" id="cell_in_ack">
    <text x="15" y="-4" class="nodelabel cell_in_ack" s:attribute="ref">in_ack</text>
    <s:alias val="$_outputExt_"/>
    <path d="M30,0 L30,20 L15,20 L0,10 L15,0 Z" class="cell_in_ack"/>
    <g s:x="0" s:y="10" s:pid="A"/>
  </g>
  <g s:type="outputExt" transform="translate(469,124.5)" s:width="30" s:height="20" id="cell_out_data">
    <text x="15" y="-4" class="nodelabel cell_out_data" s:attribute="ref">out_data</text>
    <s:alias val="$_outputExt_"/>
    <path d="M30,0 L30,20 L15,20 L0,10 L15,0 Z" class="cell_out_data"/>
    <g s:x="0" s:y="10" s:pid="A"/>
  </g>
  <g s:type="outputExt" transform="translate(77,22)" s:width="30" s:height="20" id="cell_out_req">
    <text x="15" y="-4" class="nodelabel cell_out_req" s:attribute="ref">out_req</text>
    <s:alias val="$_outputExt_"/>
    <path d="M30,0 L30,20 L15,20 L0,10 L15,0 Z" class="cell_out_req"/>
    <g s:x="0" s:y="10" s:pid="A"/>
  </g>
  <g s:type="inputExt" transform="translate(208,89.5)" s:width="30" s:height="20" id="cell_out_ack">
    <text x="15" y="-4" class="nodelabel cell_out_ack" s:attribute="ref">out_ack</text>
    <s:alias val="$_inputExt_"/>
    <path d="M0,0 L0,20 L15,20 L30,10 L15,0 Z" class="cell_out_ack"/>
    <g s:x="28" s:y="10" s:pid="Y"/>
  </g>
  <g s:type="outputExt" transform="translate(469,22)" s:width="30" s:height="20" id="cell_o_fire">
    <text x="15" y="-4" class="nodelabel cell_o_fire" s:attribute="ref">o_fire</text>
    <s:alias val="$_outputExt_"/>
    <path d="M30,0 L30,20 L15,20 L0,10 L15,0 Z" class="cell_o_fire"/>
    <g s:x="0" s:y="10" s:pid="A"/>
  </g>
  <g s:type="constant" transform="translate(12,22)" s:width="30" s:height="20" id="cell_0">
    <text x="15" y="-4" class="nodelabel cell_0" s:attribute="ref">0</text>
    <s:alias val="$_constant_"/>
    <rect width="30" height="20" class="cell_0"/>
    <g s:x="30" s:y="10" s:pid="Y"/>
  </g>
  <g s:type="join" transform="translate(428,114)" s:width="4" s:height="40" id="cell_$join$,6,7,">
    <rect width="5" height="40" class="splitjoinBody" s:generic="body"/>
    <s:alias val="$_join_"/>
    <g s:x="5" s:y="20" s:pid="out"/>
    <g transform="translate(0,10)" s:x="0" s:y="10" s:pid="in0">
      <text x="-3" y="-4" class="inputPortLabel">0</text>
    </g>
    <g transform="translate(0,30)" s:x="0" s:y="10" s:pid="in0">
      <text x="-3" y="-4" class="inputPortLabel">1</text>
    </g>
  </g>
  <g s:type="split" transform="translate(228.66666666666666,154)" s:width="5" s:height="40" id="cell_$split$,3,4,">
    <rect width="5" height="40" class="splitjoinBody" s:generic="body"/>
    <s:alias val="$_split_"/>
    <g s:x="0" s:y="20" s:pid="in"/>
    <g transform="translate(4,10)" s:x="4" s:y="10" s:pid="out0">
      <text x="5" y="-4">1</text>
    </g>
    <g transform="translate(4,30)" s:x="4" s:y="10" s:pid="out0">
      <text x="5" y="-4">0</text>
    </g>
  </g>
  <line x1="233.66666666666666" x2="270" y1="164.5" y2="164.5" class="net_4"/>
  <line x1="270" x2="270" y1="164.5" y2="134.5" class="net_4"/>
  <line x1="270" x2="293.66666666666663" y1="134.5" y2="134.5" class="net_4"/>
  <line x1="386" x2="396" y1="144.5" y2="144.5" class="net_7"/>
  <line x1="396" x2="396" y1="144.5" y2="114.5" class="net_7"/>
  <line x1="396" x2="260" y1="114.5" y2="114.5" class="net_7"/>
  <line x1="260" x2="260" y1="114.5" y2="154.5" class="net_7"/>
  <circle cx="396" cy="144.5" r="2" style="fill:#000" class="net_7"/>
  <line x1="260" x2="293.66666666666663" y1="154.5" y2="154.5" class="net_7"/>
  <line x1="386" x2="428" y1="144.5" y2="144.5" class="net_7"/>
  <line x1="236" x2="260" y1="249" y2="249" class="net_2"/>
  <line x1="260" x2="260" y1="249" y2="174.5" class="net_2"/>
  <line x1="260" x2="303.66666666666663" y1="174.5" y2="174.5" class="net_2"/>
  <circle cx="260" cy="249" r="2" style="fill:#000" class="net_2"/>
  <line x1="303.66666666666663" x2="303.66666666666663" y1="174.5" y2="159.5" class="net_2"/>
  <line x1="236" x2="479" y1="249" y2="249" class="net_2"/>
  <line x1="479" x2="479" y1="249" y2="234" class="net_2"/>
  <line x1="233.66666666666666" x2="444" y1="184.5" y2="184.5" class="net_3"/>
  <line x1="444" x2="444" y1="184.5" y2="209" class="net_3"/>
  <line x1="444" x2="469" y1="209" y2="209" class="net_3"/>
  <line x1="386" x2="406" y1="72" y2="72" class="net_6"/>
  <line x1="406" x2="406" y1="72" y2="229" class="net_6"/>
  <line x1="406" x2="469" y1="229" y2="229" class="net_6"/>
  <line x1="386" x2="406" y1="72" y2="72" class="net_6"/>
  <line x1="406" x2="406" y1="72" y2="124.5" class="net_6"/>
  <circle cx="406" cy="124.5" r="2" style="fill:#000" class="net_6"/>
  <line x1="406" x2="428" y1="124.5" y2="124.5" class="net_6"/>
  <line x1="236" x2="260" y1="34.5" y2="34.5" class="net_5"/>
  <line x1="260" x2="260" y1="34.5" y2="84.5" class="net_5"/>
  <line x1="260" x2="285" y1="84.5" y2="84.5" class="net_5"/>
  <line x1="236" x2="285" y1="99.5" y2="99.5" class="net_8"/>
  <line x1="321" x2="356" y1="92" y2="92" class="net_9"/>
  <line x1="321" x2="331" y1="92" y2="92" class="net_9"/>
  <line x1="331" x2="331" y1="92" y2="164.5" class="net_9"/>
  <circle cx="331" cy="92" r="2" style="fill:#000" class="net_9"/>
  <line x1="331" x2="356" y1="164.5" y2="164.5" class="net_9"/>
  <line x1="321" x2="331" y1="92" y2="92" class="net_9"/>
  <line x1="331" x2="331" y1="92" y2="32" class="net_9"/>
  <line x1="331" x2="469" y1="32" y2="32" class="net_9"/>
  <line x1="489" x2="527" y1="219" y2="219" class="net_11"/>
  <line x1="527" x2="527" y1="219" y2="52" class="net_11"/>
  <line x1="527" x2="341" y1="52" y2="52" class="net_11"/>
  <line x1="341" x2="341" y1="52" y2="72" class="net_11"/>
  <line x1="341" x2="356" y1="72" y2="72" class="net_11"/>
  <line x1="313.66666666666663" x2="356" y1="144.5" y2="144.5" class="net_10"/>
  <line x1="42" x2="52" y1="32" y2="32" class="net_12"/>
  <line x1="52" x2="52" y1="32" y2="97" class="net_12"/>
  <circle cx="52" cy="32" r="2" style="fill:#000" class="net_12"/>
  <line x1="52" x2="77" y1="97" y2="97" class="net_12"/>
  <line x1="42" x2="77" y1="32" y2="32" class="net_12"/>
  <line x1="434" x2="469" y1="134.5" y2="134.5" class="net_6,7"/>
  <line x1="159" x2="228.66666666666666" y1="174.5" y2="174.5" class="net_3,4"/>
</svg>
