<svg xmlns="http://www.w3.org/2000/svg" xmlns:xlink="http://www.w3.org/1999/xlink" xmlns:s="https://github.com/nturley/netlistsvg" width="345" height="260.5">
  <style>svg {
    stroke:#000;
    fill:none;
  }
  text {
    fill:#000;
    stroke:none;
    font-size:10px;
    font-weight: bold;
    font-family: "Courier New", monospace;
  }
  .nodelabel {
    text-anchor: middle;
  }
  .inputPortLabel {
    text-anchor: end;
  }
  .splitjoinBody {
    fill:#000;
  }</style>
  <g s:type="not" transform="translate(287,217.5)" s:width="30" s:height="20" id="cell_$abc$64$auto$blifparse.cc:371:parse_blif$65">
    <s:alias val="$_NOT_"/>
    <s:alias val="$not"/>
    <s:alias val="$logic_not"/>
    <path d="M0,0 L0,20 L20,10 Z" class="cell_$abc$64$auto$blifparse.cc:371:parse_blif$65"/>
    <circle cx="23" cy="10" r="3" class="cell_$abc$64$auto$blifparse.cc:371:parse_blif$65"/>
    <g s:x="0" s:y="10" s:pid="A"/>
    <g s:x="25" s:y="10" s:pid="Y"/>
  </g>
  <g s:type="reduce_xor" transform="translate(148,37)" s:width="33" s:height="25" id="cell_$abc$64$auto$blifparse.cc:371:parse_blif$66">
    <s:alias val="$xor"/>
    <s:alias val="$reduce_xor"/>
    <s:alias val="$_XOR_"/>
    <path d="M3,0 A30 25 0 0 1 3,25 A30 25 0 0 0 33,12.5 A30 25 0 0 0 3,0" class="cell_$abc$64$auto$blifparse.cc:371:parse_blif$66"/>
    <path d="M0,0 A30 25 0 0 1 0,25" class="cell_$abc$64$auto$blifparse.cc:371:parse_blif$66"/>
    <g s:x="3" s:y="5" s:pid="A"/>
    <g s:x="3" s:y="20" s:pid="B"/>
    <g s:x="33" s:y="12.5" s:pid="Y"/>
  </g>
  <g s:type="reduce_xor" transform="translate(148,102)" s:width="33" s:height="25" id="cell_$abc$64$auto$blifparse.cc:371:parse_blif$67">
    <s:alias val="$xor"/>
    <s:alias val="$reduce_xor"/>
    <s:alias val="$_XOR_"/>
    <path d="M3,0 A30 25 0 0 1 3,25 A30 25 0 0 0 33,12.5 A30 25 0 0 0 3,0" class="cell_$abc$64$auto$blifparse.cc:371:parse_blif$67"/>
    <path d="M0,0 A30 25 0 0 1 0,25" class="cell_$abc$64$auto$blifparse.cc:371:parse_blif$67"/>
    <g s:x="3" s:y="5" s:pid="A"/>
    <g s:x="3" s:y="20" s:pid="B"/>
    <g s:x="33" s:y="12.5" s:pid="Y"/>
  </g>
  <g s:type="nand" transform="translate(216,44.5)" s:width="30" s:height="25" id="cell_$abc$64$auto$blifparse.cc:371:parse_blif$68">
    <s:alias val="$nand"/>
    <s:alias val="$logic_nand"/>
    <s:alias val="$_NAND_"/>
    <s:alias val="$_ANDNOT_"/>
    <path d="M0,0 L0,25 L15,25 A15 12.5 0 0 0 15,0 Z" class="cell_$abc$64$auto$blifparse.cc:371:parse_blif$68"/>
    <circle cx="34" cy="12.5" r="3" class="cell_$abc$64$auto$blifparse.cc:371:parse_blif$68"/>
    <g s:x="0" s:y="5" s:pid="A"/>
    <g s:x="0" s:y="20" s:pid="B"/>
    <g s:x="36" s:y="12.5" s:pid="Y"/>
  </g>
  <g s:type="generic" transform="translate(63,162)" s:width="30" s:height="40" id="cell_u_dff">
    <text x="15" y="-4" class="nodelabel cell_u_dff" s:attribute="ref">dff</text>
    <rect width="30" height="40" s:generic="body" class="cell_u_dff"/>
    <g transform="translate(0,10)" s:x="0" s:y="10" s:pid="in0" id="port_u_dff~i_clk">
      <text x="-3" y="-4" class="inputPortLabel cell_u_dff">i_clk</text>
    </g>
    <g transform="translate(0,30)" s:x="0" s:y="10" s:pid="in0" id="port_u_dff~i_d">
      <text x="-3" y="-4" class="inputPortLabel cell_u_dff">i_d</text>
    </g>
    <g transform="translate(30,10)" s:x="30" s:y="10" s:pid="out0" id="port_u_dff~o_q">
      <text x="5" y="-4" style="fill:#000; stroke:none" class="cell_u_dff">o_q</text>
    </g>
  </g>
  <g s:type="outputExt" transform="translate(287,47)" s:width="30" s:height="20" id="cell_o_fire">
    <text x="15" y="-4" class="nodelabel cell_o_fire" s:attribute="ref">o_fire</text>
    <s:alias val="$_outputExt_"/>
    <path d="M30,0 L30,20 L15,20 L0,10 L15,0 Z" class="cell_o_fire"/>
    <g s:x="0" s:y="10" s:pid="A"/>
  </g>
  <g s:type="outputExt" transform="translate(287,162.5)" s:width="30" s:height="20" id="cell_o_req">
    <text x="15" y="-4" class="nodelabel cell_o_req" s:attribute="ref">o_req</text>
    <s:alias val="$_outputExt_"/>
    <path d="M30,0 L30,20 L15,20 L0,10 L15,0 Z" class="cell_o_req"/>
    <g s:x="0" s:y="10" s:pid="A"/>
  </g>
  <g s:type="inputExt" transform="translate(59,32)" s:width="30" s:height="20" id="cell_i_req">
    <text x="15" y="-4" class="nodelabel cell_i_req" s:attribute="ref">i_req</text>
    <s:alias val="$_inputExt_"/>
    <path d="M0,0 L0,20 L15,20 L30,10 L15,0 Z" class="cell_i_req"/>
    <g s:x="28" s:y="10" s:pid="Y"/>
  </g>
  <g s:type="inputExt" transform="translate(59,97)" s:width="30" s:height="20" id="cell_i_out_ack">
    <text x="15" y="-4" class="nodelabel cell_i_out_ack" s:attribute="ref">i_out_ack</text>
    <s:alias val="$_inputExt_"/>
    <path d="M0,0 L0,20 L15,20 L30,10 L15,0 Z" class="cell_i_out_ack"/>
    <g s:x="28" s:y="10" s:pid="Y"/>
  </g>
  <line x1="94" x2="262" y1="172.5" y2="172.5" class="net_3"/>
  <line x1="262" x2="262" y1="172.5" y2="227.5" class="net_3"/>
  <circle cx="262" cy="172.5" r="2" style="fill:#000" class="net_3"/>
  <line x1="262" x2="287" y1="227.5" y2="227.5" class="net_3"/>
  <line x1="94" x2="123" y1="172.5" y2="172.5" class="net_3"/>
  <line x1="123" x2="123" y1="172.5" y2="57" class="net_3"/>
  <circle cx="123" cy="172.5" r="2" style="fill:#000" class="net_3"/>
  <line x1="123" x2="151" y1="57" y2="57" class="net_3"/>
  <line x1="94" x2="123" y1="172.5" y2="172.5" class="net_3"/>
  <line x1="123" x2="123" y1="172.5" y2="122" class="net_3"/>
  <circle cx="123" cy="122" r="2" style="fill:#000" class="net_3"/>
  <line x1="123" x2="151" y1="122" y2="122" class="net_3"/>
  <line x1="94" x2="287" y1="172.5" y2="172.5" class="net_3"/>
  <line x1="87" x2="151" y1="42" y2="42" class="net_4"/>
  <line x1="87" x2="151" y1="107" y2="107" class="net_5"/>
  <line x1="181" x2="216" y1="49.5" y2="49.5" class="net_7"/>
  <line x1="181" x2="191" y1="114.5" y2="114.5" class="net_8"/>
  <line x1="191" x2="191" y1="114.5" y2="64.5" class="net_8"/>
  <line x1="191" x2="216" y1="64.5" y2="64.5" class="net_8"/>
  <line x1="252" x2="262" y1="57" y2="57" class="net_2"/>
  <line x1="262" x2="262" y1="57" y2="12" class="net_2"/>
  <line x1="262" x2="12" y1="12" y2="12" class="net_2"/>
  <line x1="12" x2="12" y1="12" y2="172.5" class="net_2"/>
  <circle cx="262" cy="57" r="2" style="fill:#000" class="net_2"/>
  <line x1="12" x2="63" y1="172.5" y2="172.5" class="net_2"/>
  <line x1="252" x2="287" y1="57" y2="57" class="net_2"/>
  <line x1="312" x2="333" y1="227.5" y2="227.5" class="net_6"/>
  <line x1="333" x2="333" y1="227.5" y2="247.5" class="net_6"/>
  <line x1="333" x2="12" y1="247.5" y2="247.5" class="net_6"/>
  <line x1="12" x2="12" y1="247.5" y2="192.5" class="net_6"/>
  <line x1="12" x2="63" y1="192.5" y2="192.5" class="net_6"/>
</svg>
